0
SECTION
2
HEADER
9
$INSUNITS
70
4
9
$ACADVER
1
AC1014
9
$HANDSEED
5
FFFF
0
ENDSEC
0
SECTION
2
TABLES
0
TABLE
2
VPORT
5
8
100
AcDbSymbolTable
0
ENDTAB
0
TABLE
2
LTYPE
5
5
100
AcDbSymbolTable
0
LTYPE
5
14
100
AcDbSymbolTableRecord
100
AcDbLinetypeTableRecord
2
BYBLOCK
70
0
0
LTYPE
5
15
100
AcDbSymbolTableRecord
100
AcDbLinetypeTableRecord
2
BYLAYER
70
0
0
ENDTAB
0
TABLE
2
LAYER
5
2
100
AcDbSymbolTable
70
2
0
LAYER
5
50
100
AcDbSymbolTableRecord
100
AcDbLayerTableRecord
2
0
70
0
6
CONTINUOUS
0
ENDTAB
0
TABLE
2
STYLE
5
3
100
AcDbSymbolTable
70
1
0
STYLE
5
11
100
AcDbSymbolTableRecord
100
AcDbTextStyleTableRecord
2
STANDARD
70
0
0
ENDTAB
0
TABLE
2
VIEW
5
6
100
AcDbSymbolTable
70
0
0
ENDTAB
0
TABLE
2
UCS
5
7
100
AcDbSymbolTable
70
0
0
ENDTAB
0
TABLE
2
APPID
5
9
100
AcDbSymbolTable
70
2
0
APPID
5
12
100
AcDbSymbolTableRecord
100
AcDbRegAppTableRecord
2
ACAD
70
0
0
ENDTAB
0
TABLE
2
DIMSTYLE
5
A
100
AcDbSymbolTable
70
1
0
ENDTAB
0
TABLE
2
BLOCK_RECORD
5
1
100
AcDbSymbolTable
70
1
0
BLOCK_RECORD
5
1F
100
AcDbSymbolTableRecord
100
AcDbBlockTableRecord
2
*MODEL_SPACE
0
BLOCK_RECORD
5
1B
100
AcDbSymbolTableRecord
100
AcDbBlockTableRecord
2
*PAPER_SPACE
0
ENDTAB
0
ENDSEC
0
SECTION
2
BLOCKS
0
BLOCK
5
20
100
AcDbEntity
100
AcDbBlockBegin
2
*MODEL_SPACE
0
ENDBLK
5
21
100
AcDbEntity
100
AcDbBlockEnd
0
BLOCK
5
1C
100
AcDbEntity
100
AcDbBlockBegin
2
*PAPER_SPACE
0
ENDBLK
5
1D
100
AcDbEntity
100
AcDbBlockEnd
0
ENDSEC
0
SECTION
2
ENTITIES
0
LWPOLYLINE
5
100
100
AcDbEntity
8
OUTER_PROFILES
100
AcDbPolyline
90
22
70
1
43
0.0
10
356.23936754644836
20
254.35709541237736
42
-1.4341597851033339
10
353.0035917010166
20
257.59287125779798
10
353.00359170101672
20
298.76936542955764
42
0.41421356237310325
10
346.65359170101658
20
305.11936542955777
10
264.96569628863915
20
305.11936542955772
42
0.41421356237309342
10
258.61569628863913
20
298.76936542955769
10
258.61569628863919
20
254.00000000000003
10
119.75016542954978
20
253.99999999999994
10
119.75016542954982
20
298.76936542954434
42
0.41421356237309587
10
113.40016542954979
20
305.11936542954436
10
31.712270017172433
20
305.11936542954413
42
0.41421356237309342
10
25.362270017172541
20
298.76936542954434
10
25.362270017172406
20
257.59287125780111
42
-1.4341597851061705
10
22.126494171748078
20
254.35709541237739
10
6.8623132452191409e-14
20
254.35709541237739
42
0.41421356237309492
10
-6.3499999999999286
20
248.00709541237737
10
-6.3499999999999801
20
6.3499999999999801
42
0.41421356237309503
10
0
20
0
10
378.36586171819164
20
3.5527136788005009e-14
42
0.41421356237309503
10
384.7158617181916
20
6.3500000000000156
10
384.71586171819172
20
248.00709541237728
42
0.41421356237309664
10
378.36586171819164
20
254.35709541237736
0
LWPOLYLINE
5
101
100
AcDbEntity
8
INTERIOR_PROFILES
100
AcDbPolyline
90
2
10
151.97570968242508
20
138.72363488377721
30
0
10
152.38064613016465
20
138.65232140721474
30
0
0
LWPOLYLINE
5
102
100
AcDbEntity
8
INTERIOR_PROFILES
100
AcDbPolyline
90
2
10
151.63030444683653
20
138.93819543065223
30
0
10
151.97570968242508
20
138.72363488377721
30
0
0
LINE
5
103
100
AcDbEntity
8
INTERIOR_PROFILES
100
AcDbLine
10
151.63030444683653
20
138.93819543065223
30
0
11
151.59495765360217
21
138.97354226173553
31
0
0
LWPOLYLINE
5
104
100
AcDbEntity
8
INTERIOR_PROFILES
100
AcDbPolyline
90
2
10
151.39217944683648
20
138.98594430269395
30
0
10
151.59495765360217
20
138.97354226173553
30
0
0
LWPOLYLINE
5
105
100
AcDbEntity
8
INTERIOR_PROFILES
100
AcDbPolyline
90
2
10
151.29730139887104
20
138.81913293065224
30
0
10
151.39217944683648
20
138.98594430269395
30
0
0
LINE
5
106
100
AcDbEntity
8
INTERIOR_PROFILES
100
AcDbLine
10
151.29730139887104
20
138.81913293065224
30
0
11
151.29730139887101
21
132.47285363377725
31
0
0
LWPOLYLINE
5
107
100
AcDbEntity
8
INTERIOR_PROFILES
100
AcDbPolyline
90
2
10
151.02320968242506
20
131.77026086033973
30
0
10
151.29730139887101
20
132.47285363377725
30
0
0
LWPOLYLINE
5
108
100
AcDbEntity
8
INTERIOR_PROFILES
100
AcDbPolyline
90
2
10
150.98724296124794
20
131.56810265721478
30
0
10
151.02320968242506
20
131.77026086033973
30
0
0
LWPOLYLINE
5
109
100
AcDbEntity
8
INTERIOR_PROFILES
100
AcDbPolyline
90
2
10
151.16583671124795
20
131.44904015721477
30
0
10
150.98724296124794
20
131.56810265721478
30
0
0
LINE
5
110
100
AcDbEntity
8
INTERIOR_PROFILES
100
AcDbLine
10
151.16583671124795
20
131.44904015721477
30
0
11
153.82117843242506
21
131.44904015721477
31
0
0
LWPOLYLINE
5
111
100
AcDbEntity
8
INTERIOR_PROFILES
100
AcDbPolyline
90
2
10
153.98798995586256
20
131.55632043065225
30
0
10
153.82117843242506
20
131.44904015721477
30
0
0
LWPOLYLINE
5
112
100
AcDbEntity
8
INTERIOR_PROFILES
100
AcDbPolyline
90
2
10
153.95202315898757
20
131.74669640721473
30
0
10
153.98798995586256
20
131.55632043065225
30
0
0
LWPOLYLINE
5
113
100
AcDbEntity
8
INTERIOR_PROFILES
100
AcDbPolyline
90
2
10
153.65436690898758
20
132.49703820408973
30
0
10
153.95202315898757
20
131.74669640721473
30
0
0
LINE
5
114
100
AcDbEntity
8
INTERIOR_PROFILES
100
AcDbLine
10
153.65436690898758
20
132.49703820408973
30
0
11
153.65436690898753
21
135.99697961033976
31
0
0
LWPOLYLINE
5
115
100
AcDbEntity
8
INTERIOR_PROFILES
100
AcDbPolyline
90
2
10
153.73808257790427
20
136.21154015721476
30
0
10
153.65436690898753
20
135.99697961033976
30
0
0
LWPOLYLINE
5
116
100
AcDbEntity
8
INTERIOR_PROFILES
100
AcDbPolyline
90
2
10
153.95202315898754
20
136.29463586033975
30
0
10
153.73808257790427
20
136.21154015721476
30
0
0
LINE
5
117
100
AcDbEntity
8
INTERIOR_PROFILES
100
AcDbLine
10
153.95202315898754
20
136.29463586033975
30
0
11
155.73796065898756
21
136.29463586033975
31
0
0
LWPOLYLINE
5
118
100
AcDbEntity
8
INTERIOR_PROFILES
100
AcDbPolyline
90
2
10
155.95252120586255
20
136.21154015721473
30
0
10
155.73796065898756
20
136.29463586033975
30
0
0
LWPOLYLINE
5
119
100
AcDbEntity
8
INTERIOR_PROFILES
100
AcDbPolyline
90
2
10
156.03561690898755
20
135.99697961033974
30
0
10
155.95252120586255
20
136.21154015721473
30
0
0
LINE
5
120
100
AcDbEntity
8
INTERIOR_PROFILES
100
AcDbLine
10
156.03561690898755
20
135.99697961033974
30
0
11
156.03561690898758
21
134.94960168065222
31
0
0
LWPOLYLINE
5
121
100
AcDbEntity
8
INTERIOR_PROFILES
100
AcDbPolyline
90
2
10
155.73796065898756
20
134.19925988377724
30
0
10
156.03561690898758
20
134.94960168065222
30
0
0
LWPOLYLINE
5
122
100
AcDbEntity
8
INTERIOR_PROFILES
100
AcDbPolyline
90
2
10
155.72617843242506
20
134.00888390721474
30
0
10
155.73796065898756
20
134.19925988377724
30
0
0
LWPOLYLINE
5
123
100
AcDbEntity
8
INTERIOR_PROFILES
100
AcDbPolyline
90
2
10
155.89298995586256
20
133.90160363377726
30
0
10
155.72617843242506
20
134.00888390721474
30
0
0
LINE
5
124
100
AcDbEntity
8
INTERIOR_PROFILES
100
AcDbLine
10
155.89298995586256
20
133.90160363377726
30
0
11
158.53592940898756
21
133.90160363377726
31
0
0
LWPOLYLINE
5
125
100
AcDbEntity
8
INTERIOR_PROFILES
100
AcDbPolyline
90
2
10
158.69095870586256
20
134.00888390721474
30
0
10
158.53592940898756
20
133.90160363377726
30
0
0
LWPOLYLINE
5
126
100
AcDbEntity
8
INTERIOR_PROFILES
100
AcDbPolyline
90
2
10
158.69095870586256
20
134.19925988377724
30
0
10
158.69095870586256
20
134.00888390721474
30
0
0
LWPOLYLINE
5
127
100
AcDbEntity
8
INTERIOR_PROFILES
100
AcDbPolyline
90
2
10
158.39330245586257
20
134.94960168065222
30
0
10
158.69095870586256
20
134.19925988377724
30
0
0
LINE
5
128
100
AcDbEntity
8
INTERIOR_PROFILES
100
AcDbLine
10
158.39330245586257
20
134.94960168065222
30
0
11
158.39330245586257
21
135.99697961033976
31
0
0
LWPOLYLINE
5
129
100
AcDbEntity
8
INTERIOR_PROFILES
100
AcDbPolyline
90
2
10
158.47639815898756
20
136.21154015721473
30
0
10
158.39330245586257
20
135.99697961033976
30
0
0
LWPOLYLINE
5
130
100
AcDbEntity
8
INTERIOR_PROFILES
100
AcDbPolyline
90
2
10
158.69095870586256
20
136.29463586033975
30
0
10
158.47639815898756
20
136.21154015721473
30
0
0
LINE
5
131
100
AcDbEntity
8
INTERIOR_PROFILES
100
AcDbLine
10
158.69095870586256
20
136.29463586033975
30
0
11
160.47689620586257
21
136.29463586033975
31
0
0
LWPOLYLINE
5
132
100
AcDbEntity
8
INTERIOR_PROFILES
100
AcDbPolyline
90
2
10
160.69083663555006
20
136.21154015721473
30
0
10
160.47689620586257
20
136.29463586033975
30
0
0
LWPOLYLINE
5
133
100
AcDbEntity
8
INTERIOR_PROFILES
100
AcDbPolyline
90
2
10
160.77455245586259
20
135.99697961033974
30
0
10
160.69083663555006
20
136.21154015721473
30
0
0
LINE
5
134
100
AcDbEntity
8
INTERIOR_PROFILES
100
AcDbLine
10
160.77455245586259
20
135.99697961033974
30
0
11
160.77455245586259
21
132.49703820408973
31
0
0
LWPOLYLINE
5
135
100
AcDbEntity
8
INTERIOR_PROFILES
100
AcDbPolyline
90
2
10
160.47689620586254
20
131.74669640721476
30
0
10
160.77455245586259
20
132.49703820408973
30
0
0
LWPOLYLINE
5
136
100
AcDbEntity
8
INTERIOR_PROFILES
100
AcDbPolyline
90
2
10
160.44092940898759
20
131.55632043065225
30
0
10
160.47689620586254
20
131.74669640721476
30
0
0
LWPOLYLINE
5
137
100
AcDbEntity
8
INTERIOR_PROFILES
100
AcDbPolyline
90
2
10
160.60774093242509
20
131.44904015721474
30
0
10
160.44092940898759
20
131.55632043065225
30
0
0
LINE
5
138
100
AcDbEntity
8
INTERIOR_PROFILES
100
AcDbLine
10
160.60774093242509
20
131.44904015721474
30
0
11
163.27486495586257
21
131.44904015721477
31
0
0
LWPOLYLINE
5
139
100
AcDbEntity
8
INTERIOR_PROFILES
100
AcDbPolyline
90
2
10
163.44167647930007
20
131.56810265721475
30
0
10
163.27486495586257
20
131.44904015721477
30
0
0
LWPOLYLINE
5
140
100
AcDbEntity
8
INTERIOR_PROFILES
100
AcDbPolyline
90
2
10
163.40570968242503
20
131.77026086033976
30
0
10
163.44167647930007
20
131.56810265721475
30
0
0
LWPOLYLINE
5
141
100
AcDbEntity
8
INTERIOR_PROFILES
100
AcDbPolyline
90
2
10
163.13161788555007
20
132.47285363377722
30
0
10
163.40570968242503
20
131.77026086033976
30
0
0
LINE
5
142
100
AcDbEntity
8
INTERIOR_PROFILES
100
AcDbLine
10
163.13161788555007
20
132.47285363377722
30
0
11
163.13161788555007
21
138.81913293065224
31
0
0
LWPOLYLINE
5
143
100
AcDbEntity
8
INTERIOR_PROFILES
100
AcDbPolyline
90
2
10
163.02495772930004
20
138.98594430269395
30
0
10
163.13161788555007
20
138.81913293065224
30
0
0
LWPOLYLINE
5
144
100
AcDbEntity
8
INTERIOR_PROFILES
100
AcDbPolyline
90
2
10
162.83396163555005
20
138.97354226173553
30
0
10
163.02495772930004
20
138.98594430269395
30
0
0
LINE
5
145
100
AcDbEntity
8
INTERIOR_PROFILES
100
AcDbLine
10
162.83396163555005
20
138.97354226173553
30
0
11
162.79861495586255
21
138.93819543065223
31
0
0
LWPOLYLINE
5
146
100
AcDbEntity
8
INTERIOR_PROFILES
100
AcDbPolyline
90
2
10
162.04827315898754
20
138.65232140721474
30
0
10
162.79861495586255
20
138.93819543065223
30
0
0
LINE
5
147
100
AcDbEntity
8
INTERIOR_PROFILES
100
AcDbLine
10
162.04827315898754
20
138.65232140721474
30
0
11
152.38064613016465
21
138.65232140721474
31
0
0
LWPOLYLINE
5
148
100
AcDbEntity
8
INTERIOR_PROFILES
100
AcDbPolyline
90
2
10
162.85814620586254
20
186.40824142096474
30
0
10
163.04852218242505
20
186.46777267096473
30
0
0
LWPOLYLINE
5
149
100
AcDbEntity
8
INTERIOR_PROFILES
100
AcDbPolyline
90
2
10
162.40546065898755
20
186.02748939214183
30
0
10
162.85814620586254
20
186.40824142096474
30
0
0
LWPOLYLINE
5
150
100
AcDbEntity
8
INTERIOR_PROFILES
100
AcDbPolyline
90
2
10
161.85789718242503
20
185.77696227548554
30
0
10
162.40546065898755
20
186.02748939214183
30
0
0
LINE
5
151
100
AcDbEntity
8
INTERIOR_PROFILES
100
AcDbLine
10
161.85789718242503
20
185.77696227548554
30
0
11
152.08298988016466
21
182.95542892096475
31
0
0
LWPOLYLINE
5
152
100
AcDbEntity
8
INTERIOR_PROFILES
100
AcDbPolyline
90
2
10
151.61852218242504
20
183.06270919440226
30
0
10
152.08298988016466
20
182.95542892096475
30
0
0
LWPOLYLINE
5
153
100
AcDbEntity
8
INTERIOR_PROFILES
100
AcDbPolyline
90
2
10
151.41636390360216
20
183.09805587408974
30
0
10
151.61852218242504
20
183.06270919440226
30
0
0
LWPOLYLINE
5
154
100
AcDbEntity
8
INTERIOR_PROFILES
100
AcDbPolyline
90
2
10
151.32086593242505
20
182.93186446783974
30
0
10
151.41636390360216
20
183.09805587408974
30
0
0
LINE
5
155
100
AcDbEntity
8
INTERIOR_PROFILES
100
AcDbLine
10
151.32086593242505
20
182.93186446783974
30
0
11
151.32086593242508
21
179.77670821783974
31
0
0
LWPOLYLINE
5
156
100
AcDbEntity
8
INTERIOR_PROFILES
100
AcDbPolyline
90
2
10
151.41636390360213
20
179.62167892096474
30
0
10
151.32086593242508
20
179.77670821783974
30
0
0
LWPOLYLINE
5
157
100
AcDbEntity
8
INTERIOR_PROFILES
100
AcDbPolyline
90
2
10
151.61852218242504
20
179.64524337408974
30
0
10
151.41636390360213
20
179.62167892096474
30
0
0
LWPOLYLINE
5
158
100
AcDbEntity
8
INTERIOR_PROFILES
100
AcDbPolyline
90
2
10
152.08298988016466
20
179.76430587408973
30
0
10
151.61852218242504
20
179.64524337408974
30
0
0
LINE
5
159
100
AcDbEntity
8
INTERIOR_PROFILES
100
AcDbLine
10
152.08298988016466
20
179.76430587408973
30
0
11
161.86967940898754
21
176.93099044440225
31
0
0
LWPOLYLINE
5
160
100
AcDbEntity
8
INTERIOR_PROFILES
100
AcDbPolyline
90
2
10
162.38189620586255
20
176.70464767096473
30
0
10
161.86967940898754
20
176.93099044440225
30
0
0
LWPOLYLINE
5
161
100
AcDbEntity
8
INTERIOR_PROFILES
100
AcDbPolyline
90
2
10
162.83396163555005
20
176.34746017096475
30
0
10
162.38189620586255
20
176.70464767096473
30
0
0
LINE
5
162
100
AcDbEntity
8
INTERIOR_PROFILES
100
AcDbLine
10
162.83396163555005
20
176.34746017096475
30
0
11
162.85814620586254
21
176.31149337408974
31
0
0
LWPOLYLINE
5
163
100
AcDbEntity
8
INTERIOR_PROFILES
100
AcDbPolyline
90
2
10
163.04852218242505
20
176.29971114752726
30
0
10
162.85814620586254
20
176.31149337408974
30
0
0
LWPOLYLINE
5
164
100
AcDbEntity
8
INTERIOR_PROFILES
100
AcDbPolyline
90
2
10
163.15580245586258
20
176.46652267096474
30
0
10
163.04852218242505
20
176.29971114752726
30
0
0
LINE
5
165
100
AcDbEntity
8
INTERIOR_PROFILES
100
AcDbLine
10
163.15580245586258
20
176.46652267096474
30
0
11
163.15580245586256
21
179.01458419440229
31
0
0
LINE
5
166
100
AcDbEntity
8
INTERIOR_PROFILES
100
AcDbLine
10
163.15580245586256
20
179.01458419440229
30
0
11
163.13161788555007
21
179.02636642096479
31
0
0
LINE
5
167
100
AcDbEntity
8
INTERIOR_PROFILES
100
AcDbLine
10
163.13161788555007
20
179.02636642096479
30
0
11
163.15580245586256
21
179.02636642096473
31
0
0
LINE
5
168
100
AcDbEntity
8
INTERIOR_PROFILES
100
AcDbLine
10
163.15580245586256
20
179.02636642096473
30
0
11
163.15580245586256
21
179.25270919440223
31
0
0
LWPOLYLINE
5
169
100
AcDbEntity
8
INTERIOR_PROFILES
100
AcDbPolyline
90
2
10
163.04852218242505
20
179.41952071783973
30
0
10
163.15580245586256
20
179.25270919440223
30
0
0
LWPOLYLINE
5
170
100
AcDbEntity
8
INTERIOR_PROFILES
100
AcDbPolyline
90
2
10
162.85814620586257
20
179.40711837408972
30
0
10
163.04852218242505
20
179.41952071783973
30
0
0
LINE
5
171
100
AcDbEntity
8
INTERIOR_PROFILES
100
AcDbLine
10
162.85814620586257
20
179.40711837408972
30
0
11
162.83396163555005
21
179.38355392096474
31
0
0
LWPOLYLINE
5
172
100
AcDbEntity
8
INTERIOR_PROFILES
100
AcDbPolyline
90
2
10
162.32236495586255
20
179.26449142096473
30
0
10
162.83396163555005
20
179.38355392096474
30
0
0
LINE
5
173
100
AcDbEntity
8
INTERIOR_PROFILES
100
AcDbLine
10
162.32236495586255
20
179.26449142096473
30
0
11
155.55936690898758
21
181.21724044440225
31
0
0
LWPOLYLINE
5
174
100
AcDbEntity
8
INTERIOR_PROFILES
100
AcDbPolyline
90
2
10
155.45208663555007
20
181.35986739752724
30
0
10
155.55936690898758
20
181.21724044440225
30
0
0
LWPOLYLINE
5
175
100
AcDbEntity
8
INTERIOR_PROFILES
100
AcDbPolyline
90
2
10
155.55936690898756
20
181.50311446783974
30
0
10
155.45208663555007
20
181.35986739752724
30
0
0
LINE
5
176
100
AcDbEntity
8
INTERIOR_PROFILES
100
AcDbLine
10
155.55936690898756
20
181.50311446783974
30
0
11
162.32236495586255
21
183.45524337408975
31
0
0
LWPOLYLINE
5
177
100
AcDbEntity
8
INTERIOR_PROFILES
100
AcDbPolyline
90
2
10
162.84636397930007
20
183.32439864752726
30
0
10
162.32236495586255
20
183.45524337408975
30
0
0
LINE
5
178
100
AcDbEntity
8
INTERIOR_PROFILES
100
AcDbLine
10
162.84636397930007
20
183.32439864752726
30
0
11
162.85814620586254
21
183.31261642096476
31
0
0
LWPOLYLINE
5
179
100
AcDbEntity
8
INTERIOR_PROFILES
100
AcDbPolyline
90
2
10
163.04852218242502
20
183.30083419440226
30
0
10
162.85814620586254
20
183.31261642096476
30
0
0
LWPOLYLINE
5
180
100
AcDbEntity
8
INTERIOR_PROFILES
100
AcDbPolyline
90
2
10
163.15580245586258
20
183.46764571783973
30
0
10
163.04852218242502
20
183.30083419440226
30
0
0
LINE
5
181
100
AcDbEntity
8
INTERIOR_PROFILES
100
AcDbLine
10
163.15580245586258
20
183.46764571783973
30
0
11
163.15580245586256
21
186.30096122322513
31
0
0
LWPOLYLINE
5
182
100
AcDbEntity
8
INTERIOR_PROFILES
100
AcDbPolyline
90
2
10
163.04852218242505
20
186.46777267096473
30
0
10
163.15580245586256
20
186.30096122322513
30
0
0
LWPOLYLINE
5
183
100
AcDbEntity
8
INTERIOR_PROFILES
100
AcDbPolyline
90
2
10
162.84636397930007
20
100.43304784173554
30
0
10
163.03673995586252
20
100.44544988269396
30
0
0
LWPOLYLINE
5
184
100
AcDbEntity
8
INTERIOR_PROFILES
100
AcDbPolyline
90
2
10
162.10780440898756
20
100.14779363269395
30
0
10
162.84636397930007
20
100.43304784173554
30
0
0
LINE
5
185
100
AcDbEntity
8
INTERIOR_PROFILES
100
AcDbLine
10
162.10780440898756
20
100.14779363269395
30
0
11
151.58255546124795
21
100.14779363269395
31
0
0
LWPOLYLINE
5
186
100
AcDbEntity
8
INTERIOR_PROFILES
100
AcDbPolyline
90
2
10
151.38039718242504
20
100.06407796377727
30
0
10
151.58255546124795
20
100.14779363269395
30
0
0
LWPOLYLINE
5
187
100
AcDbEntity
8
INTERIOR_PROFILES
100
AcDbPolyline
90
2
10
151.29730139887104
20
99.861919760652256
30
0
10
151.38039718242504
20
100.06407796377727
30
0
0
LINE
5
188
100
AcDbEntity
8
INTERIOR_PROFILES
100
AcDbLine
10
151.29730139887104
20
99.861919760652256
30
0
11
151.29730139887104
21
93.813296713777248
31
0
0
LWPOLYLINE
5
189
100
AcDbEntity
8
INTERIOR_PROFILES
100
AcDbPolyline
90
2
10
151.13048991801361
20
93.384795737214731
30
0
10
151.29730139887104
20
93.813296713777248
30
0
0
LINE
5
190
100
AcDbEntity
8
INTERIOR_PROFILES
100
AcDbLine
10
151.13048991801361
20
93.384795737214731
30
0
11
151.01142741801362
21
93.242168784089756
31
0
0
LWPOLYLINE
5
191
100
AcDbEntity
8
INTERIOR_PROFILES
100
AcDbPolyline
90
2
10
150.99964515360213
20
93.051172690339769
30
0
10
151.01142741801362
20
93.242168784089756
30
0
0
LWPOLYLINE
5
192
100
AcDbEntity
8
INTERIOR_PROFILES
100
AcDbPolyline
90
2
10
151.16583671124795
20
92.956294760652241
30
0
10
150.99964515360213
20
93.051172690339769
30
0
0
LINE
5
193
100
AcDbEntity
8
INTERIOR_PROFILES
100
AcDbLine
10
151.16583671124795
20
92.956294760652241
30
0
11
153.79761382790423
21
92.95629476065227
31
0
0
LWPOLYLINE
5
194
100
AcDbEntity
8
INTERIOR_PROFILES
100
AcDbPolyline
90
2
10
153.96380538555005
20
93.051172690339769
30
0
10
153.79761382790423
20
92.95629476065227
30
0
0
LWPOLYLINE
5
195
100
AcDbEntity
8
INTERIOR_PROFILES
100
AcDbPolyline
90
2
10
153.95202315898754
20
93.242168784089742
30
0
10
153.96380538555005
20
93.051172690339769
30
0
0
LINE
5
196
100
AcDbEntity
8
INTERIOR_PROFILES
100
AcDbLine
10
153.95202315898754
20
93.242168784089742
30
0
11
153.83296065898756
21
93.384795737214731
31
0
0
LWPOLYLINE
5
197
100
AcDbEntity
8
INTERIOR_PROFILES
100
AcDbPolyline
90
2
10
153.66614928694585
20
93.813296713777248
30
0
10
153.83296065898756
20
93.384795737214731
30
0
0
LINE
5
198
100
AcDbEntity
8
INTERIOR_PROFILES
100
AcDbLine
10
153.66614928694585
20
93.813296713777248
30
0
11
153.66614928694585
21
97.504234213777252
31
0
0
LWPOLYLINE
5
199
100
AcDbEntity
8
INTERIOR_PROFILES
100
AcDbPolyline
90
2
10
153.73808257790427
20
97.707012534089756
30
0
10
153.66614928694585
20
97.504234213777252
30
0
0
LWPOLYLINE
5
200
100
AcDbEntity
8
INTERIOR_PROFILES
100
AcDbPolyline
90
2
10
153.95202315898754
20
97.790108237214753
30
0
10
153.73808257790427
20
97.707012534089756
30
0
0
LINE
5
201
100
AcDbEntity
8
INTERIOR_PROFILES
100
AcDbLine
10
153.95202315898754
20
97.790108237214753
30
0
11
162.09602218242506
21
97.790108237214753
31
0
0
LWPOLYLINE
5
202
100
AcDbEntity
8
INTERIOR_PROFILES
100
AcDbPolyline
90
2
10
162.83396163555005
20
97.504234213777238
30
0
10
162.09602218242506
20
97.790108237214753
30
0
0
LINE
5
203
100
AcDbEntity
8
INTERIOR_PROFILES
100
AcDbLine
10
162.83396163555005
20
97.504234213777238
30
0
11
162.84636397930004
21
97.492451987214764
31
0
0
LWPOLYLINE
5
204
100
AcDbEntity
8
INTERIOR_PROFILES
100
AcDbPolyline
90
2
10
163.03673995586254
20
97.480669760652248
30
0
10
162.84636397930004
20
97.492451987214764
30
0
0
LWPOLYLINE
5
205
100
AcDbEntity
8
INTERIOR_PROFILES
100
AcDbPolyline
90
2
10
163.13161788555007
20
97.647481284089764
30
0
10
163.03673995586254
20
97.480669760652248
30
0
0
LINE
5
206
100
AcDbEntity
8
INTERIOR_PROFILES
100
AcDbLine
10
163.13161788555007
20
97.647481284089764
30
0
11
163.13161788555007
21
100.27863851065223
31
0
0
LWPOLYLINE
5
207
100
AcDbEntity
8
INTERIOR_PROFILES
100
AcDbPolyline
90
2
10
163.03673995586252
20
100.44544988269396
30
0
10
163.13161788555007
20
100.27863851065223
30
0
0
LWPOLYLINE
5
208
100
AcDbEntity
8
INTERIOR_PROFILES
100
AcDbPolyline
90
5
10
191.08793408887152
20
227.60984922691736
30
0
10
190.93836172736252
20
226.86794109854404
30
0
10
190.5303241890328
20
226.26245860948714
30
0
10
189.92484079317816
20
225.85442112635377
30
0
10
189.18293085909451
20
225.70484801575094
30
0
0
LINE
5
209
100
AcDbEntity
8
INTERIOR_PROFILES
100
AcDbLine
10
191.08793408887152
20
227.60984922691736
30
0
11
191.08793408887155
21
235.22984902505627
31
0
0
LWPOLYLINE
5
210
100
AcDbEntity
8
INTERIOR_PROFILES
100
AcDbPolyline
90
2
10
191.91872559404936
20
236.06064053023414
30
0
10
191.08793408887155
20
235.22984902505627
30
0
0
LINE
5
211
100
AcDbEntity
8
INTERIOR_PROFILES
100
AcDbLine
10
191.91872559404936
20
236.06064053023414
30
0
11
199.538724382883
21
236.06064053023414
31
0
0
LWPOLYLINE
5
212
100
AcDbEntity
8
INTERIOR_PROFILES
100
AcDbPolyline
90
5
10
201.44372357543872
20
237.96563972278986
30
0
10
201.29415156087842
20
237.22373212272475
30
0
10
200.88611493723161
20
236.6182499254202
30
0
10
200.28063283454941
20
236.21021282866155
30
0
10
199.538724382883
20
236.06064053023414
30
0
0
LWPOLYLINE
5
213
100
AcDbEntity
8
INTERIOR_PROFILES
100
AcDbPolyline
90
5
10
199.538724382883
20
239.87063891534558
30
0
10
200.28063198294805
20
239.72106661691814
30
0
10
200.88611418025263
20
239.31302952015949
30
0
10
201.29415127701128
20
238.70754732285491
30
0
10
201.44372357543872
20
237.96563972278986
30
0
0
LINE
5
214
100
AcDbEntity
8
INTERIOR_PROFILES
100
AcDbLine
10
199.538724382883
20
239.87063891534558
30
0
11
191.91872357543872
21
239.87063891534558
31
0
0
LWPOLYLINE
5
215
100
AcDbEntity
8
INTERIOR_PROFILES
100
AcDbPolyline
90
2
10
191.08793207026088
20
240.70143042052339
30
0
10
191.91872357543872
20
239.87063891534558
30
0
0
LWPOLYLINE
5
216
100
AcDbEntity
8
INTERIOR_PROFILES
100
AcDbPolyline
90
5
10
186.44714016136095
20
239.87063891534558
30
0
10
187.40406411058271
20
240.78589054042649
30
0
10
188.59588810221913
20
241.24746459766777
30
0
10
189.87353610065145
20
241.2283236900424
30
0
10
191.08793207026088
20
240.70143042052339
30
0
0
LINE
5
217
100
AcDbEntity
8
INTERIOR_PROFILES
100
AcDbLine
10
186.44714016136095
20
239.87063891534558
30
0
11
178.82714036322201
21
239.87063891534558
31
0
0
LWPOLYLINE
5
218
100
AcDbEntity
8
INTERIOR_PROFILES
100
AcDbPolyline
90
5
10
176.92214016136097
20
237.96563972278983
30
0
10
177.07171247555877
20
238.70754732285491
30
0
10
177.47974968271023
20
239.31302952015949
30
0
10
178.08523217965231
20
239.72106661691814
30
0
10
178.82714036322201
20
239.87063891534558
30
0
0
LWPOLYLINE
5
219
100
AcDbEntity
8
INTERIOR_PROFILES
100
AcDbPolyline
90
5
10
178.82714036322199
20
236.06063952092879
30
0
10
178.08523217965231
20
236.21021197706014
30
0
10
177.47974968271023
20
236.61824942076751
30
0
10
177.07171247555877
20
237.22373196502079
30
0
10
176.92214016136097
20
237.96563972278983
30
0
0
LINE
5
220
100
AcDbEntity
8
INTERIOR_PROFILES
100
AcDbLine
10
178.82714036322199
20
236.06063952092879
30
0
11
186.44714016136095
21
236.06063952092879
31
0
0
LWPOLYLINE
5
221
100
AcDbEntity
8
INTERIOR_PROFILES
100
AcDbPolyline
90
2
10
187.27793166653873
20
235.22984801575092
30
0
10
186.44714016136095
20
236.06063952092879
30
0
0
LINE
5
222
100
AcDbEntity
8
INTERIOR_PROFILES
100
AcDbLine
10
187.27793166653873
20
235.22984801575092
30
0
11
187.27793166653879
21
227.60984821761198
31
0
0
LWPOLYLINE
5
223
100
AcDbEntity
8
INTERIOR_PROFILES
100
AcDbPolyline
90
5
10
189.18293085909451
20
225.70484801575094
30
0
10
188.44102325902941
20
225.85442032994877
30
0
10
187.83554106172485
20
226.26245753710023
30
0
10
187.42750396496618
20
226.86794003404231
30
0
10
187.27793166653879
20
227.60984821761198
30
0
0
LINE
5
224
100
AcDbEntity
8
INTERIOR_PROFILES
100
AcDbLine
10
162.10780440898759
20
128.24614282127726
30
0
11
152.34467948468546
21
128.24614282127723
31
0
0
LWPOLYLINE
5
225
100
AcDbEntity
8
INTERIOR_PROFILES
100
AcDbPolyline
90
2
10
151.63030444683653
20
128.52023461815224
30
0
10
152.34467948468546
20
128.24614282127723
30
0
0
LWPOLYLINE
5
226
100
AcDbEntity
8
INTERIOR_PROFILES
100
AcDbPolyline
90
2
10
151.4281461680136
20
128.56798349019391
30
0
10
151.63030444683653
20
128.52023461815224
30
0
0
LWPOLYLINE
5
227
100
AcDbEntity
8
INTERIOR_PROFILES
100
AcDbPolyline
90
2
10
151.32086593242505
20
128.38938974019396
30
0
10
151.4281461680136
20
128.56798349019391
30
0
0
LINE
5
228
100
AcDbEntity
8
INTERIOR_PROFILES
100
AcDbLine
10
151.32086593242505
20
128.38938974019396
30
0
11
151.32086593242505
21
125.72226586815222
31
0
0
LWPOLYLINE
5
229
100
AcDbEntity
8
INTERIOR_PROFILES
100
AcDbPolyline
90
2
10
151.41636390360216
20
125.56723657127722
30
0
10
151.32086593242505
20
125.72226586815222
30
0
0
LWPOLYLINE
5
230
100
AcDbEntity
8
INTERIOR_PROFILES
100
AcDbPolyline
90
2
10
151.61852218242504
20
125.59142114158973
30
0
10
151.41636390360216
20
125.56723657127722
30
0
0
LWPOLYLINE
5
231
100
AcDbEntity
8
INTERIOR_PROFILES
100
AcDbPolyline
90
2
10
152.35646171124796
20
125.88907739158972
30
0
10
151.61852218242504
20
125.59142114158973
30
0
0
LINE
5
232
100
AcDbEntity
8
INTERIOR_PROFILES
100
AcDbLine
10
152.35646171124796
20
125.88907739158972
30
0
11
154.09527022930004
21
125.88907739158972
31
0
0
LWPOLYLINE
5
233
100
AcDbEntity
8
INTERIOR_PROFILES
100
AcDbPolyline
90
2
10
154.34517745586257
20
125.79357934471474
30
0
10
154.09527022930004
20
125.88907739158972
30
0
0
LWPOLYLINE
5
234
100
AcDbEntity
8
INTERIOR_PROFILES
100
AcDbPolyline
90
2
10
154.45245772930008
20
125.54367211815222
30
0
10
154.34517745586257
20
125.79357934471474
30
0
0
LINE
5
235
100
AcDbEntity
8
INTERIOR_PROFILES
100
AcDbLine
10
154.45245772930008
20
125.54367211815222
30
0
11
154.45245772930005
21
125.25779809471473
31
0
0
LWPOLYLINE
5
236
100
AcDbEntity
8
INTERIOR_PROFILES
100
AcDbPolyline
90
2
10
154.28564620586255
20
124.96014184471476
30
0
10
154.45245772930005
20
125.25779809471473
30
0
0
LINE
5
237
100
AcDbEntity
8
INTERIOR_PROFILES
100
AcDbLine
10
154.28564620586255
20
124.96014184471476
30
0
11
151.92796069683649
21
123.49542504783975
31
0
0
LWPOLYLINE
5
238
100
AcDbEntity
8
INTERIOR_PROFILES
100
AcDbPolyline
90
2
10
151.63030444683653
20
123.51960961815223
30
0
10
151.92796069683649
20
123.49542504783975
30
0
0
LINE
5
239
100
AcDbEntity
8
INTERIOR_PROFILES
100
AcDbLine
10
151.63030444683653
20
123.51960961815223
30
0
11
151.61852218242507
21
123.53139184471473
31
0
0
LWPOLYLINE
5
240
100
AcDbEntity
8
INTERIOR_PROFILES
100
AcDbPolyline
90
2
10
151.41636390360216
20
123.54317407127724
30
0
10
151.61852218242507
20
123.53139184471473
30
0
0
LWPOLYLINE
5
241
100
AcDbEntity
8
INTERIOR_PROFILES
100
AcDbPolyline
90
2
10
151.32086593242508
20
123.37636254783973
30
0
10
151.41636390360216
20
123.54317407127724
30
0
0
LINE
5
242
100
AcDbEntity
8
INTERIOR_PROFILES
100
AcDbLine
10
151.32086593242508
20
123.37636254783973
30
0
11
151.32086593242505
21
120.36445336815225
31
0
0
LWPOLYLINE
5
243
100
AcDbEntity
8
INTERIOR_PROFILES
100
AcDbPolyline
90
2
10
151.4281461680136
20
120.20942407127723
30
0
10
151.32086593242505
20
120.36445336815225
30
0
0
LWPOLYLINE
5
244
100
AcDbEntity
8
INTERIOR_PROFILES
100
AcDbPolyline
90
2
10
151.61852218242504
20
120.28073754783976
30
0
10
151.4281461680136
20
120.20942407127723
30
0
0
LINE
5
245
100
AcDbEntity
8
INTERIOR_PROFILES
100
AcDbLine
10
151.61852218242504
20
120.28073754783976
30
0
11
151.76114921124795
21
120.45933129783975
31
0
0
LWPOLYLINE
5
246
100
AcDbEntity
8
INTERIOR_PROFILES
100
AcDbPolyline
90
2
10
152.32111488016466
20
120.94798364158976
30
0
10
151.76114921124795
20
120.45933129783975
30
0
0
LINE
5
247
100
AcDbEntity
8
INTERIOR_PROFILES
100
AcDbLine
10
152.32111488016466
20
120.94798364158976
30
0
11
154.67818038555006
21
122.42386254783975
31
0
0
LWPOLYLINE
5
248
100
AcDbEntity
8
INTERIOR_PROFILES
100
AcDbPolyline
90
2
10
154.92870772930007
20
122.47161157127726
30
0
10
154.67818038555006
20
122.42386254783975
30
0
0
LWPOLYLINE
5
249
100
AcDbEntity
8
INTERIOR_PROFILES
100
AcDbPolyline
90
2
10
155.14264815898756
20
122.31720239158976
30
0
10
154.92870772930007
20
122.47161157127726
30
0
0
LWPOLYLINE
5
250
100
AcDbEntity
8
INTERIOR_PROFILES
100
AcDbPolyline
90
2
10
155.86880538555005
20
121.54329614158975
30
0
10
155.14264815898756
20
122.31720239158976
30
0
0
LWPOLYLINE
5
251
100
AcDbEntity
8
INTERIOR_PROFILES
100
AcDbPolyline
90
2
10
157.21445968242506
20
120.80473657127726
30
0
10
155.86880538555005
20
121.54329614158975
30
0
0
LWPOLYLINE
5
252
100
AcDbEntity
8
INTERIOR_PROFILES
100
AcDbPolyline
90
2
10
158.78583663555006
20
120.54304711815223
30
0
10
157.21445968242506
20
120.80473657127726
30
0
0
LWPOLYLINE
5
253
100
AcDbEntity
8
INTERIOR_PROFILES
100
AcDbPolyline
90
2
10
160.36961593242506
20
120.80473657127726
30
0
10
158.78583663555006
20
120.54304711815223
30
0
0
LWPOLYLINE
5
254
100
AcDbEntity
8
INTERIOR_PROFILES
100
AcDbPolyline
90
2
10
161.72705245586258
20
121.54329614158975
30
0
10
160.36961593242506
20
120.80473657127726
30
0
0
LWPOLYLINE
5
255
100
AcDbEntity
8
INTERIOR_PROFILES
100
AcDbPolyline
90
2
10
162.78683272930004
20
122.91251489158974
30
0
10
161.72705245586258
20
121.54329614158975
30
0
0
LWPOLYLINE
5
256
100
AcDbEntity
8
INTERIOR_PROFILES
100
AcDbPolyline
90
2
10
163.15580245586256
20
124.65070336815225
30
0
10
162.78683272930004
20
122.91251489158974
30
0
0
LINE
5
257
100
AcDbEntity
8
INTERIOR_PROFILES
100
AcDbLine
10
163.15580245586256
20
124.65070336815225
30
0
11
163.15580245586256
21
128.41295434471473
31
0
0
LWPOLYLINE
5
258
100
AcDbEntity
8
INTERIOR_PROFILES
100
AcDbPolyline
90
2
10
163.04852218242502
20
128.57976586815224
30
0
10
163.15580245586256
20
128.41295434471473
30
0
0
LWPOLYLINE
5
259
100
AcDbEntity
8
INTERIOR_PROFILES
100
AcDbPolyline
90
2
10
162.85814620586254
20
128.54379907127725
30
0
10
163.04852218242502
20
128.57976586815224
30
0
0
LWPOLYLINE
5
260
100
AcDbEntity
8
INTERIOR_PROFILES
100
AcDbPolyline
90
2
10
162.10780440898759
20
128.24614282127726
30
0
10
162.85814620586254
20
128.54379907127725
30
0
0
LWPOLYLINE
5
261
100
AcDbEntity
8
INTERIOR_PROFILES
100
AcDbPolyline
90
2
10
151.41636390360216
20
84.526308326589742
30
0
10
151.32086593242505
20
84.681337623464756
30
0
0
LWPOLYLINE
5
262
100
AcDbEntity
8
INTERIOR_PROFILES
100
AcDbPolyline
90
2
10
151.61852218242504
20
84.526308326589742
30
0
10
151.41636390360216
20
84.526308326589742
30
0
0
LWPOLYLINE
5
263
100
AcDbEntity
8
INTERIOR_PROFILES
100
AcDbPolyline
90
2
10
152.35646171124796
20
84.823964576589759
30
0
10
151.61852218242504
20
84.526308326589742
30
0
0
LINE
5
264
100
AcDbEntity
8
INTERIOR_PROFILES
100
AcDbLine
10
152.35646171124796
20
84.823964576589759
30
0
11
160.55999190898757
21
84.823964576589759
31
0
0
LWPOLYLINE
5
265
100
AcDbEntity
8
INTERIOR_PROFILES
100
AcDbPolyline
90
2
10
160.72680343242502
20
84.752651100027236
30
0
10
160.55999190898757
20
84.823964576589759
30
0
0
LWPOLYLINE
5
266
100
AcDbEntity
8
INTERIOR_PROFILES
100
AcDbPolyline
90
2
10
160.79811690898759
20
84.585839576589763
30
0
10
160.72680343242502
20
84.752651100027236
30
0
0
LINE
5
267
100
AcDbEntity
8
INTERIOR_PROFILES
100
AcDbLine
10
160.79811690898759
20
84.585839576589763
30
0
11
160.79811690898759
21
82.943149146902257
31
0
0
LWPOLYLINE
5
268
100
AcDbEntity
8
INTERIOR_PROFILES
100
AcDbPolyline
90
2
10
160.50046065898755
20
82.216991920339737
30
0
10
160.79811690898759
20
82.943149146902257
30
0
0
LINE
5
269
100
AcDbEntity
8
INTERIOR_PROFILES
100
AcDbLine
10
160.50046065898755
20
82.216991920339737
30
0
11
160.50046065898755
21
82.204589576589754
31
0
0
LWPOLYLINE
5
270
100
AcDbEntity
8
INTERIOR_PROFILES
100
AcDbPolyline
90
2
10
160.48867843242505
20
82.014213600027261
30
0
10
160.50046065898755
20
82.204589576589754
30
0
0
LWPOLYLINE
5
271
100
AcDbEntity
8
INTERIOR_PROFILES
100
AcDbPolyline
90
2
10
160.65548995586255
20
81.906933326589737
30
0
10
160.48867843242505
20
82.014213600027261
30
0
0
LINE
5
272
100
AcDbEntity
8
INTERIOR_PROFILES
100
AcDbLine
10
160.65548995586255
20
81.906933326589737
30
0
11
163.29842940898757
21
81.906933326589737
31
0
0
LWPOLYLINE
5
273
100
AcDbEntity
8
INTERIOR_PROFILES
100
AcDbPolyline
90
2
10
163.45345870586257
20
82.014213600027247
30
0
10
163.29842940898757
20
81.906933326589737
30
0
0
LWPOLYLINE
5
274
100
AcDbEntity
8
INTERIOR_PROFILES
100
AcDbPolyline
90
2
10
163.45345870586257
20
82.204589576589754
30
0
10
163.45345870586257
20
82.014213600027247
30
0
0
LINE
5
275
100
AcDbEntity
8
INTERIOR_PROFILES
100
AcDbLine
10
163.45345870586257
20
82.204589576589754
30
0
11
163.44167647930007
21
82.216991920339737
31
0
0
LWPOLYLINE
5
276
100
AcDbEntity
8
INTERIOR_PROFILES
100
AcDbPolyline
90
2
10
163.15580245586256
20
82.943149146902257
30
0
10
163.44167647930007
20
82.216991920339737
30
0
0
LINE
5
277
100
AcDbEntity
8
INTERIOR_PROFILES
100
AcDbLine
10
163.15580245586256
20
82.943149146902257
30
0
11
163.15580245586256
21
89.06308551894395
31
0
0
LWPOLYLINE
5
278
100
AcDbEntity
8
INTERIOR_PROFILES
100
AcDbPolyline
90
2
10
163.44167647930007
20
89.801025123464754
30
0
10
163.15580245586256
20
89.06308551894395
30
0
0
LINE
5
279
100
AcDbEntity
8
INTERIOR_PROFILES
100
AcDbLine
10
163.44167647930007
20
89.801025123464754
30
0
11
163.45345870586257
21
89.801025123464768
31
0
0
LWPOLYLINE
5
280
100
AcDbEntity
8
INTERIOR_PROFILES
100
AcDbPolyline
90
2
10
163.45345870586257
20
90.003183477985544
30
0
10
163.45345870586257
20
89.801025123464768
30
0
0
LWPOLYLINE
5
281
100
AcDbEntity
8
INTERIOR_PROFILES
100
AcDbPolyline
90
2
10
163.29842940898757
20
90.098681373464757
30
0
10
163.45345870586257
20
90.003183477985544
30
0
0
LINE
5
282
100
AcDbEntity
8
INTERIOR_PROFILES
100
AcDbLine
10
163.29842940898757
20
90.098681373464757
30
0
11
160.65548995586255
21
90.098681373464743
31
0
0
LWPOLYLINE
5
283
100
AcDbEntity
8
INTERIOR_PROFILES
100
AcDbPolyline
90
2
10
160.48867843242505
20
90.003183477985544
30
0
10
160.65548995586255
20
90.098681373464743
30
0
0
LWPOLYLINE
5
284
100
AcDbEntity
8
INTERIOR_PROFILES
100
AcDbPolyline
90
2
10
160.50046065898755
20
89.801025123464754
30
0
10
160.48867843242505
20
90.003183477985544
30
0
0
LWPOLYLINE
5
285
100
AcDbEntity
8
INTERIOR_PROFILES
100
AcDbPolyline
90
2
10
160.79811690898754
20
89.06308551894395
30
0
10
160.50046065898755
20
89.801025123464754
30
0
0
LINE
5
286
100
AcDbEntity
8
INTERIOR_PROFILES
100
AcDbLine
10
160.79811690898754
20
89.06308551894395
30
0
11
160.79811690898759
21
87.419775123464774
31
0
0
LWPOLYLINE
5
287
100
AcDbEntity
8
INTERIOR_PROFILES
100
AcDbPolyline
90
2
10
160.72680343242502
20
87.252963600027272
30
0
10
160.79811690898759
20
87.419775123464774
30
0
0
LWPOLYLINE
5
288
100
AcDbEntity
8
INTERIOR_PROFILES
100
AcDbPolyline
90
2
10
160.55999190898757
20
87.181650123464749
30
0
10
160.72680343242502
20
87.252963600027272
30
0
0
LINE
5
289
100
AcDbEntity
8
INTERIOR_PROFILES
100
AcDbLine
10
160.55999190898757
20
87.181650123464749
30
0
11
152.36886390360215
21
87.181650123464749
31
0
0
LWPOLYLINE
5
290
100
AcDbEntity
8
INTERIOR_PROFILES
100
AcDbPolyline
90
2
10
151.63030444683653
20
87.467524146902235
30
0
10
152.36886390360215
20
87.181650123464749
30
0
0
LINE
5
291
100
AcDbEntity
8
INTERIOR_PROFILES
100
AcDbLine
10
151.63030444683653
20
87.467524146902235
30
0
11
151.61852218242504
21
87.479306373464738
31
0
0
LWPOLYLINE
5
292
100
AcDbEntity
8
INTERIOR_PROFILES
100
AcDbPolyline
90
2
10
151.41636390360216
20
87.49108860002724
30
0
10
151.61852218242504
20
87.479306373464738
30
0
0
LWPOLYLINE
5
293
100
AcDbEntity
8
INTERIOR_PROFILES
100
AcDbPolyline
90
2
10
151.32086593242505
20
87.324277076589738
30
0
10
151.41636390360216
20
87.49108860002724
30
0
0
LINE
5
294
100
AcDbEntity
8
INTERIOR_PROFILES
100
AcDbLine
10
151.32086593242505
20
87.324277076589738
30
0
11
151.32086593242505
21
84.681337623464756
31
0
0
LWPOLYLINE
5
295
100
AcDbEntity
8
INTERIOR_PROFILES
100
AcDbPolyline
90
2
10
151.32086593242505
20
167.64400221596475
30
0
10
151.41636390360216
20
167.81081373940225
30
0
0
LINE
5
296
100
AcDbEntity
8
INTERIOR_PROFILES
100
AcDbLine
10
151.32086593242505
20
167.64400221596475
30
0
11
151.32086593242505
21
164.90556471596477
31
0
0
LWPOLYLINE
5
297
100
AcDbEntity
8
INTERIOR_PROFILES
100
AcDbPolyline
90
2
10
151.38039718242504
20
164.76293776283973
30
0
10
151.32086593242505
20
164.90556471596477
30
0
0
LWPOLYLINE
5
298
100
AcDbEntity
8
INTERIOR_PROFILES
100
AcDbPolyline
90
2
10
151.53542640360217
20
164.72697096596474
30
0
10
151.38039718242504
20
164.76293776283973
30
0
0
LWPOLYLINE
5
299
100
AcDbEntity
8
INTERIOR_PROFILES
100
AcDbPolyline
90
2
10
151.64208671124794
20
164.78650221596473
30
0
10
151.53542640360217
20
164.72697096596474
30
0
0
LWPOLYLINE
5
300
100
AcDbEntity
8
INTERIOR_PROFILES
100
AcDbPolyline
90
2
10
152.51149093242506
20
165.33406569252722
30
0
10
151.64208671124794
20
164.78650221596473
30
0
0
LINE
5
301
100
AcDbEntity
8
INTERIOR_PROFILES
100
AcDbLine
10
152.51149093242506
20
165.33406569252722
30
0
11
162.34592940898756
21
168.17978346596473
31
0
0
LWPOLYLINE
5
302
100
AcDbEntity
8
INTERIOR_PROFILES
100
AcDbPolyline
90
2
10
162.85814620586254
20
168.06072096596472
30
0
10
162.34592940898756
20
168.17978346596473
30
0
0
LWPOLYLINE
5
303
100
AcDbEntity
8
INTERIOR_PROFILES
100
AcDbPolyline
90
2
10
163.04852218242507
20
168.04893873940222
30
0
10
162.85814620586254
20
168.06072096596472
30
0
0
LWPOLYLINE
5
304
100
AcDbEntity
8
INTERIOR_PROFILES
100
AcDbPolyline
90
2
10
163.15580245586256
20
168.21575026283972
30
0
10
163.04852218242507
20
168.04893873940222
30
0
0
LINE
5
305
100
AcDbEntity
8
INTERIOR_PROFILES
100
AcDbLine
10
163.15580245586256
20
168.21575026283972
30
0
11
163.15580245586258
21
171.35850416908971
31
0
0
LWPOLYLINE
5
306
100
AcDbEntity
8
INTERIOR_PROFILES
100
AcDbPolyline
90
2
10
163.04852218242505
20
171.52531569252727
30
0
10
163.15580245586258
20
171.35850416908971
30
0
0
LWPOLYLINE
5
307
100
AcDbEntity
8
INTERIOR_PROFILES
100
AcDbPolyline
90
2
10
162.85814620586254
20
171.51353346596471
30
0
10
163.04852218242505
20
171.52531569252727
30
0
0
LWPOLYLINE
5
308
100
AcDbEntity
8
INTERIOR_PROFILES
100
AcDbPolyline
90
2
10
162.34592940898756
20
171.39447096596473
30
0
10
162.85814620586254
20
171.51353346596471
30
0
0
LINE
5
309
100
AcDbEntity
8
INTERIOR_PROFILES
100
AcDbLine
10
162.34592940898756
20
171.39447096596473
30
0
11
152.49970863016466
21
174.22840636144397
31
0
0
LWPOLYLINE
5
310
100
AcDbEntity
8
INTERIOR_PROFILES
100
AcDbPolyline
90
2
10
151.64208671124797
20
174.78775221596476
30
0
10
152.49970863016466
20
174.22840636144397
30
0
0
LWPOLYLINE
5
311
100
AcDbEntity
8
INTERIOR_PROFILES
100
AcDbPolyline
90
2
10
151.53542640360214
20
174.84728346596472
30
0
10
151.64208671124797
20
174.78775221596476
30
0
0
LWPOLYLINE
5
312
100
AcDbEntity
8
INTERIOR_PROFILES
100
AcDbPolyline
90
2
10
151.38039718242504
20
174.81131674478763
30
0
10
151.53542640360214
20
174.84728346596472
30
0
0
LWPOLYLINE
5
313
100
AcDbEntity
8
INTERIOR_PROFILES
100
AcDbPolyline
90
2
10
151.32086593242508
20
174.65690741370435
30
0
10
151.38039718242504
20
174.81131674478763
30
0
0
LINE
5
314
100
AcDbEntity
8
INTERIOR_PROFILES
100
AcDbLine
10
151.32086593242508
20
174.65690741370435
30
0
11
151.32086593242508
21
171.89428541908973
31
0
0
LWPOLYLINE
5
315
100
AcDbEntity
8
INTERIOR_PROFILES
100
AcDbPolyline
90
2
10
151.41636390360213
20
171.73987623940224
30
0
10
151.32086593242508
20
171.89428541908973
30
0
0
LWPOLYLINE
5
316
100
AcDbEntity
8
INTERIOR_PROFILES
100
AcDbPolyline
90
2
10
151.60673991801357
20
171.76344069252724
30
0
10
151.41636390360213
20
171.73987623940224
30
0
0
LWPOLYLINE
5
317
100
AcDbEntity
8
INTERIOR_PROFILES
100
AcDbPolyline
90
2
10
152.11833671124796
20
171.89428541908973
30
0
10
151.60673991801357
20
171.76344069252724
30
0
0
LINE
5
318
100
AcDbEntity
8
INTERIOR_PROFILES
100
AcDbLine
10
152.11833671124796
20
171.89428541908973
30
0
11
153.35671065898759
21
171.52531569252722
31
0
0
LWPOLYLINE
5
319
100
AcDbEntity
8
INTERIOR_PROFILES
100
AcDbPolyline
90
2
10
153.66614928694585
20
171.31137526283976
30
0
10
153.35671065898759
20
171.52531569252722
30
0
0
LWPOLYLINE
5
320
100
AcDbEntity
8
INTERIOR_PROFILES
100
AcDbPolyline
90
2
10
153.78521178694587
20
170.95418776283975
30
0
10
153.66614928694585
20
171.31137526283976
30
0
0
LINE
5
321
100
AcDbEntity
8
INTERIOR_PROFILES
100
AcDbLine
10
153.78521178694587
20
170.95418776283975
30
0
11
153.78521178694587
21
168.60828444252724
31
0
0
LWPOLYLINE
5
322
100
AcDbEntity
8
INTERIOR_PROFILES
100
AcDbPolyline
90
2
10
153.66614928694585
20
168.25109694252723
30
0
10
153.78521178694587
20
168.60828444252724
30
0
0
LWPOLYLINE
5
323
100
AcDbEntity
8
INTERIOR_PROFILES
100
AcDbPolyline
90
2
10
153.35671065898757
20
168.03715651283972
30
0
10
153.66614928694585
20
168.25109694252723
30
0
0
LINE
5
324
100
AcDbEntity
8
INTERIOR_PROFILES
100
AcDbLine
10
153.35671065898757
20
168.03715651283972
30
0
11
152.11833671124796
21
167.67996901283971
31
0
0
LWPOLYLINE
5
325
100
AcDbEntity
8
INTERIOR_PROFILES
100
AcDbPolyline
90
2
10
151.61852218242504
20
167.79903151283975
30
0
10
152.11833671124796
20
167.67996901283971
30
0
0
LINE
5
326
100
AcDbEntity
8
INTERIOR_PROFILES
100
AcDbLine
10
151.61852218242504
20
167.79903151283975
30
0
11
151.6067399180136
21
167.79903151283975
31
0
0
LWPOLYLINE
5
327
100
AcDbEntity
8
INTERIOR_PROFILES
100
AcDbPolyline
90
2
10
151.41636390360216
20
167.81081373940225
30
0
10
151.6067399180136
20
167.79903151283975
30
0
0
LWPOLYLINE
5
328
100
AcDbEntity
8
INTERIOR_PROFILES
100
AcDbPolyline
90
2
10
151.61852218242504
20
106.30282020173553
30
0
10
152.36886390360215
20
106.00516395173555
30
0
0
LWPOLYLINE
5
329
100
AcDbEntity
8
INTERIOR_PROFILES
100
AcDbPolyline
90
2
10
151.41636390360216
20
106.31522224269395
30
0
10
151.61852218242504
20
106.30282020173553
30
0
0
LWPOLYLINE
5
330
100
AcDbEntity
8
INTERIOR_PROFILES
100
AcDbPolyline
90
2
10
151.32086593242505
20
106.14841087065224
30
0
10
151.41636390360216
20
106.31522224269395
30
0
0
LINE
5
331
100
AcDbEntity
8
INTERIOR_PROFILES
100
AcDbLine
10
151.32086593242505
20
106.14841087065224
30
0
11
151.32086593242505
21
103.51725364408975
31
0
0
LWPOLYLINE
5
332
100
AcDbEntity
8
INTERIOR_PROFILES
100
AcDbPolyline
90
2
10
151.41636390360216
20
103.35044212065225
30
0
10
151.32086593242505
20
103.51725364408975
30
0
0
LWPOLYLINE
5
333
100
AcDbEntity
8
INTERIOR_PROFILES
100
AcDbPolyline
90
2
10
151.61852218242504
20
103.36222434721475
30
0
10
151.41636390360216
20
103.35044212065225
30
0
0
LWPOLYLINE
5
334
100
AcDbEntity
8
INTERIOR_PROFILES
100
AcDbPolyline
90
2
10
151.96392738016465
20
103.57678489408976
30
0
10
151.61852218242504
20
103.36222434721475
30
0
0
LWPOLYLINE
5
335
100
AcDbEntity
8
INTERIOR_PROFILES
100
AcDbPolyline
90
2
10
152.36886390360215
20
103.64809837065225
30
0
10
151.96392738016465
20
103.57678489408976
30
0
0
LINE
5
336
100
AcDbEntity
8
INTERIOR_PROFILES
100
AcDbLine
10
152.36886390360215
20
103.64809837065225
30
0
11
162.10780440898756
21
103.64809837065225
31
0
0
LWPOLYLINE
5
337
100
AcDbEntity
8
INTERIOR_PROFILES
100
AcDbPolyline
90
2
10
162.85814620586254
20
103.36222434721475
30
0
10
162.10780440898756
20
103.64809837065225
30
0
0
LWPOLYLINE
5
338
100
AcDbEntity
8
INTERIOR_PROFILES
100
AcDbPolyline
90
2
10
163.04852218242502
20
103.35044212065226
30
0
10
162.85814620586254
20
103.36222434721475
30
0
0
LWPOLYLINE
5
339
100
AcDbEntity
8
INTERIOR_PROFILES
100
AcDbPolyline
90
2
10
163.15580245586256
20
103.51725364408975
30
0
10
163.04852218242502
20
103.35044212065226
30
0
0
LINE
5
340
100
AcDbEntity
8
INTERIOR_PROFILES
100
AcDbLine
10
163.15580245586256
20
103.51725364408975
30
0
11
163.15580245586256
21
106.14841087065223
31
0
0
LWPOLYLINE
5
341
100
AcDbEntity
8
INTERIOR_PROFILES
100
AcDbPolyline
90
2
10
163.04852218242505
20
106.31522224269392
30
0
10
163.15580245586256
20
106.14841087065223
30
0
0
LWPOLYLINE
5
342
100
AcDbEntity
8
INTERIOR_PROFILES
100
AcDbPolyline
90
2
10
162.85814620586254
20
106.30282020173553
30
0
10
163.04852218242505
20
106.31522224269392
30
0
0
LWPOLYLINE
5
343
100
AcDbEntity
8
INTERIOR_PROFILES
100
AcDbPolyline
90
2
10
162.10780440898756
20
106.00516395173554
30
0
10
162.85814620586254
20
106.30282020173553
30
0
0
LINE
5
344
100
AcDbEntity
8
INTERIOR_PROFILES
100
AcDbLine
10
162.10780440898756
20
106.00516395173554
30
0
11
152.36886390360215
21
106.00516395173555
31
0
0
LWPOLYLINE
5
345
100
AcDbEntity
8
INTERIOR_PROFILES
100
AcDbPolyline
90
3
10
162.6082389793001
20
143.66459238658973
30
0
10
161.94882186504228
20
142.90564646373818
30
0
10
161.04802413555007
20
142.27180918346474
30
0
0
LWPOLYLINE
5
346
100
AcDbEntity
8
INTERIOR_PROFILES
100
AcDbPolyline
90
3
10
163.15580245586258
20
145.49827891002724
30
0
10
163.01596603008133
20
144.5370197547538
30
0
10
162.6082389793001
20
143.66459238658973
30
0
0
LINE
5
347
100
AcDbEntity
8
INTERIOR_PROFILES
100
AcDbLine
10
163.15580245586258
20
145.49827891002724
30
0
11
163.15580245586258
21
149.83227793346475
31
0
0
LWPOLYLINE
5
348
100
AcDbEntity
8
INTERIOR_PROFILES
100
AcDbPolyline
90
2
10
163.04852218242507
20
149.99908945690223
30
0
10
163.15580245586258
20
149.83227793346475
30
0
0
LWPOLYLINE
5
349
100
AcDbEntity
8
INTERIOR_PROFILES
100
AcDbPolyline
90
2
10
162.85814620586251
20
149.96312266002724
30
0
10
163.04852218242507
20
149.99908945690223
30
0
0
LWPOLYLINE
5
350
100
AcDbEntity
8
INTERIOR_PROFILES
100
AcDbPolyline
90
2
10
162.01292647930003
20
149.63011957894395
30
0
10
162.85814620586251
20
149.96312266002724
30
0
0
LINE
5
351
100
AcDbEntity
8
INTERIOR_PROFILES
100
AcDbLine
10
162.01292647930003
20
149.63011957894395
30
0
11
152.45195968242504
21
149.63011957894398
31
0
0
LWPOLYLINE
5
352
100
AcDbEntity
8
INTERIOR_PROFILES
100
AcDbPolyline
90
2
10
151.60673991801357
20
149.96312266002724
30
0
10
152.45195968242504
20
149.63011957894398
30
0
0
LWPOLYLINE
5
353
100
AcDbEntity
8
INTERIOR_PROFILES
100
AcDbPolyline
90
2
10
151.41636390360216
20
149.99908945690223
30
0
10
151.60673991801357
20
149.96312266002724
30
0
0
LWPOLYLINE
5
354
100
AcDbEntity
8
INTERIOR_PROFILES
100
AcDbPolyline
90
2
10
151.32086593242508
20
149.83227793346475
30
0
10
151.41636390360216
20
149.99908945690223
30
0
0
LINE
5
355
100
AcDbEntity
8
INTERIOR_PROFILES
100
AcDbLine
10
151.32086593242508
20
149.83227793346475
30
0
11
151.32086593242508
21
145.49827891002724
31
0
0
LWPOLYLINE
5
356
100
AcDbEntity
8
INTERIOR_PROFILES
100
AcDbPolyline
90
3
10
151.85664718242504
20
143.66459238658976
30
0
10
151.45481124492508
20
144.5370197547538
30
0
10
151.32086593242508
20
145.49827891002724
30
0
0
LWPOLYLINE
5
357
100
AcDbEntity
8
INTERIOR_PROFILES
100
AcDbPolyline
90
3
10
153.40445968242506
20
142.27180918346474
30
0
10
152.51009561197978
20
142.90564646373818
30
0
10
151.85664718242504
20
143.66459238658976
30
0
0
LWPOLYLINE
5
358
100
AcDbEntity
8
INTERIOR_PROFILES
100
AcDbPolyline
90
2
10
155.15443038555006
20
141.62874766002722
30
0
10
153.40445968242506
20
142.27180918346474
30
0
0
LWPOLYLINE
5
359
100
AcDbEntity
8
INTERIOR_PROFILES
100
AcDbPolyline
90
2
10
157.22624190898759
20
141.39062266002725
30
0
10
155.15443038555006
20
141.62874766002722
30
0
0
LWPOLYLINE
5
360
100
AcDbEntity
8
INTERIOR_PROFILES
100
AcDbPolyline
90
2
10
159.28627120586256
20
141.62874766002722
30
0
10
157.22624190898759
20
141.39062266002725
30
0
0
LWPOLYLINE
5
361
100
AcDbEntity
8
INTERIOR_PROFILES
100
AcDbPolyline
90
2
10
161.04802413555007
20
142.27180918346474
30
0
10
159.28627120586256
20
141.62874766002722
30
0
0
LINE
5
362
100
AcDbEntity
8
INTERIOR_PROFILES
100
AcDbLine
10
151.61852218242504
20
159.59538785221474
30
0
11
151.64208671124797
21
159.61895230533975
31
0
0
LWPOLYLINE
5
363
100
AcDbEntity
8
INTERIOR_PROFILES
100
AcDbPolyline
90
2
10
152.35646171124796
20
159.89304410221473
30
0
10
151.64208671124797
20
159.61895230533975
30
0
0
LINE
5
364
100
AcDbEntity
8
INTERIOR_PROFILES
100
AcDbLine
10
152.35646171124796
20
159.89304410221473
30
0
11
158.26245772930005
21
159.89304410221476
31
0
0
LWPOLYLINE
5
365
100
AcDbEntity
8
INTERIOR_PROFILES
100
AcDbPolyline
90
2
10
158.34555343242505
20
159.83351285221477
30
0
10
158.26245772930005
20
159.89304410221476
30
0
0
LWPOLYLINE
5
366
100
AcDbEntity
8
INTERIOR_PROFILES
100
AcDbPolyline
90
2
10
158.30958663555006
20
159.71445035221475
30
0
10
158.34555343242505
20
159.83351285221477
30
0
0
LINE
5
367
100
AcDbEntity
8
INTERIOR_PROFILES
100
AcDbLine
10
158.30958663555006
20
159.71445035221475
30
0
11
152.03524093242504
21
155.97576382877725
31
0
0
LWPOLYLINE
5
368
100
AcDbEntity
8
INTERIOR_PROFILES
100
AcDbPolyline
90
2
10
151.61852218242504
20
156.02351285221474
30
0
10
152.03524093242504
20
155.97576382877725
30
0
0
LWPOLYLINE
5
369
100
AcDbEntity
8
INTERIOR_PROFILES
100
AcDbPolyline
90
2
10
151.41636390360216
20
156.03529507877724
30
0
10
151.61852218242504
20
156.02351285221474
30
0
0
LWPOLYLINE
5
370
100
AcDbEntity
8
INTERIOR_PROFILES
100
AcDbPolyline
90
2
10
151.32086593242508
20
155.86848355533974
30
0
10
151.41636390360216
20
156.03529507877724
30
0
0
LINE
5
371
100
AcDbEntity
8
INTERIOR_PROFILES
100
AcDbLine
10
151.32086593242508
20
155.86848355533974
30
0
11
151.32086593242505
21
153.05873257877724
31
0
0
LWPOLYLINE
5
372
100
AcDbEntity
8
INTERIOR_PROFILES
100
AcDbPolyline
90
2
10
151.41636390360216
20
152.89192105533974
30
0
10
151.32086593242505
20
153.05873257877724
30
0
0
LWPOLYLINE
5
373
100
AcDbEntity
8
INTERIOR_PROFILES
100
AcDbPolyline
90
2
10
151.61852218242504
20
152.90432339908978
30
0
10
151.41636390360216
20
152.89192105533974
30
0
0
LINE
5
374
100
AcDbEntity
8
INTERIOR_PROFILES
100
AcDbLine
10
151.61852218242504
20
152.90432339908978
30
0
11
151.63030444683653
21
152.91610562565225
31
0
0
LWPOLYLINE
5
375
100
AcDbEntity
8
INTERIOR_PROFILES
100
AcDbPolyline
90
2
10
152.34467948468546
20
153.18957730533975
30
0
10
151.63030444683653
20
152.91610562565225
30
0
0
LINE
5
376
100
AcDbEntity
8
INTERIOR_PROFILES
100
AcDbLine
10
152.34467948468546
20
153.18957730533975
30
0
11
162.13198897930005
21
153.18957730533975
31
0
0
LWPOLYLINE
5
377
100
AcDbEntity
8
INTERIOR_PROFILES
100
AcDbPolyline
90
2
10
162.84636397930007
20
152.91610562565225
30
0
10
162.13198897930005
20
153.18957730533975
30
0
0
LINE
5
378
100
AcDbEntity
8
INTERIOR_PROFILES
100
AcDbLine
10
162.84636397930007
20
152.91610562565225
30
0
11
162.85814620586254
21
152.90432339908978
31
0
0
LWPOLYLINE
5
379
100
AcDbEntity
8
INTERIOR_PROFILES
100
AcDbPolyline
90
2
10
163.04852218242505
20
152.89192105533974
30
0
10
162.85814620586254
20
152.90432339908978
30
0
0
LWPOLYLINE
5
380
100
AcDbEntity
8
INTERIOR_PROFILES
100
AcDbPolyline
90
2
10
163.15580245586256
20
153.05873257877724
30
0
10
163.04852218242505
20
152.89192105533974
30
0
0
LINE
5
381
100
AcDbEntity
8
INTERIOR_PROFILES
100
AcDbLine
10
163.15580245586256
20
153.05873257877724
30
0
11
163.15580245586258
21
155.6898898053397
31
0
0
LWPOLYLINE
5
382
100
AcDbEntity
8
INTERIOR_PROFILES
100
AcDbPolyline
90
2
10
163.04852218242505
20
155.85670132877723
30
0
10
163.15580245586258
20
155.6898898053397
30
0
0
LWPOLYLINE
5
383
100
AcDbEntity
8
INTERIOR_PROFILES
100
AcDbPolyline
90
2
10
162.85814620586254
20
155.84491910221476
30
0
10
163.04852218242505
20
155.85670132877723
30
0
0
LINE
5
384
100
AcDbEntity
8
INTERIOR_PROFILES
100
AcDbLine
10
162.85814620586254
20
155.84491910221476
30
0
11
162.84636397930007
21
155.83313687565223
31
0
0
LWPOLYLINE
5
385
100
AcDbEntity
8
INTERIOR_PROFILES
100
AcDbPolyline
90
2
10
162.13198897930005
20
155.55904507877725
30
0
10
162.84636397930007
20
155.83313687565223
30
0
0
LINE
5
386
100
AcDbEntity
8
INTERIOR_PROFILES
100
AcDbLine
10
162.13198897930005
20
155.55904507877725
30
0
11
156.21421065898755
21
155.55904507877725
31
0
0
LWPOLYLINE
5
387
100
AcDbEntity
8
INTERIOR_PROFILES
100
AcDbPolyline
90
2
10
156.11933272930006
20
155.63035855533974
30
0
10
156.21421065898755
20
155.55904507877725
30
0
0
LWPOLYLINE
5
388
100
AcDbEntity
8
INTERIOR_PROFILES
100
AcDbPolyline
90
2
10
156.16646163555006
20
155.73763882877725
30
0
10
156.11933272930006
20
155.63035855533974
30
0
0
LINE
5
389
100
AcDbEntity
8
INTERIOR_PROFILES
100
AcDbLine
10
156.16646163555006
20
155.73763882877725
30
0
11
162.42964522930006
21
159.46454312565226
31
0
0
LWPOLYLINE
5
390
100
AcDbEntity
8
INTERIOR_PROFILES
100
AcDbPolyline
90
2
10
162.85814620586254
20
159.41679410221474
30
0
10
162.42964522930006
20
159.46454312565226
30
0
0
LWPOLYLINE
5
391
100
AcDbEntity
8
INTERIOR_PROFILES
100
AcDbPolyline
90
2
10
163.04852218242507
20
159.40501187565224
30
0
10
162.85814620586254
20
159.41679410221474
30
0
0
LWPOLYLINE
5
392
100
AcDbEntity
8
INTERIOR_PROFILES
100
AcDbPolyline
90
2
10
163.15580245586258
20
159.57182339908974
30
0
10
163.04852218242507
20
159.40501187565224
30
0
0
LINE
5
393
100
AcDbEntity
8
INTERIOR_PROFILES
100
AcDbLine
10
163.15580245586258
20
159.57182339908974
30
0
11
163.15580245586258
21
162.38157437565224
31
0
0
LWPOLYLINE
5
394
100
AcDbEntity
8
INTERIOR_PROFILES
100
AcDbPolyline
90
2
10
163.04852218242505
20
162.54838574769394
30
0
10
163.15580245586258
20
162.38157437565224
30
0
0
LWPOLYLINE
5
395
100
AcDbEntity
8
INTERIOR_PROFILES
100
AcDbPolyline
90
2
10
162.85814620586254
20
162.53598370673555
30
0
10
163.04852218242505
20
162.54838574769394
30
0
0
LWPOLYLINE
5
396
100
AcDbEntity
8
INTERIOR_PROFILES
100
AcDbPolyline
90
2
10
162.14377120586255
20
162.25072949769395
30
0
10
162.85814620586254
20
162.53598370673555
30
0
0
LINE
5
397
100
AcDbEntity
8
INTERIOR_PROFILES
100
AcDbLine
10
162.14377120586255
20
162.25072949769395
30
0
11
152.33289718242506
21
162.25072949769395
31
0
0
LWPOLYLINE
5
398
100
AcDbEntity
8
INTERIOR_PROFILES
100
AcDbPolyline
90
2
10
151.61852218242504
20
162.53598370673555
30
0
10
152.33289718242506
20
162.25072949769395
30
0
0
LWPOLYLINE
5
399
100
AcDbEntity
8
INTERIOR_PROFILES
100
AcDbPolyline
90
2
10
151.41636390360213
20
162.54838574769394
30
0
10
151.61852218242504
20
162.53598370673555
30
0
0
LWPOLYLINE
5
400
100
AcDbEntity
8
INTERIOR_PROFILES
100
AcDbPolyline
90
2
10
151.32086593242505
20
162.38157437565229
30
0
10
151.41636390360213
20
162.54838574769394
30
0
0
LINE
5
401
100
AcDbEntity
8
INTERIOR_PROFILES
100
AcDbLine
10
151.32086593242505
20
162.38157437565229
30
0
11
151.32086593242508
21
159.75041714908974
31
0
0
LWPOLYLINE
5
402
100
AcDbEntity
8
INTERIOR_PROFILES
100
AcDbPolyline
90
2
10
151.41636390360213
20
159.58360562565224
30
0
10
151.32086593242508
20
159.75041714908974
30
0
0
LWPOLYLINE
5
403
100
AcDbEntity
8
INTERIOR_PROFILES
100
AcDbPolyline
90
2
10
151.61852218242504
20
159.59538785221474
30
0
10
151.41636390360213
20
159.58360562565224
30
0
0
LINE
5
404
100
AcDbEntity
8
INTERIOR_PROFILES
100
AcDbLine
10
162.01292647930003
20
116.95939751894399
30
0
11
152.46374198468547
21
116.95939751894397
31
0
0
LWPOLYLINE
5
405
100
AcDbEntity
8
INTERIOR_PROFILES
100
AcDbPolyline
90
2
10
151.6067399180136
20
117.29240060002724
30
0
10
152.46374198468547
20
116.95939751894397
30
0
0
LWPOLYLINE
5
406
100
AcDbEntity
8
INTERIOR_PROFILES
100
AcDbPolyline
90
2
10
151.41636390360216
20
117.30418297798556
30
0
10
151.6067399180136
20
117.29240060002724
30
0
0
LWPOLYLINE
5
407
100
AcDbEntity
8
INTERIOR_PROFILES
100
AcDbPolyline
90
2
10
151.32086593242505
20
117.13799126894394
30
0
10
151.41636390360216
20
117.30418297798556
30
0
0
LINE
5
408
100
AcDbEntity
8
INTERIOR_PROFILES
100
AcDbLine
10
151.32086593242505
20
117.13799126894394
30
0
11
151.32086593242505
21
112.82755685002726
31
0
0
LWPOLYLINE
5
409
100
AcDbEntity
8
INTERIOR_PROFILES
100
AcDbPolyline
90
2
10
151.61852218242504
20
111.05340157658975
30
0
10
151.32086593242505
20
112.82755685002726
30
0
0
LWPOLYLINE
5
410
100
AcDbEntity
8
INTERIOR_PROFILES
100
AcDbPolyline
90
2
10
152.42839515360214
20
109.76789864690225
30
0
10
151.61852218242504
20
111.05340157658975
30
0
0
LWPOLYLINE
5
411
100
AcDbEntity
8
INTERIOR_PROFILES
100
AcDbPolyline
90
2
10
153.55948882790426
20
108.98221017033975
30
0
10
152.42839515360214
20
109.76789864690225
30
0
0
LWPOLYLINE
5
412
100
AcDbEntity
8
INTERIOR_PROFILES
100
AcDbPolyline
90
2
10
154.85677413555007
20
108.71990060002724
30
0
10
153.55948882790426
20
108.98221017033975
30
0
0
LWPOLYLINE
5
413
100
AcDbEntity
8
INTERIOR_PROFILES
100
AcDbPolyline
90
2
10
156.21421065898755
20
109.01755685002726
30
0
10
154.85677413555007
20
108.71990060002724
30
0
0
LWPOLYLINE
5
414
100
AcDbEntity
8
INTERIOR_PROFILES
100
AcDbPolyline
90
2
10
157.36948897930006
20
109.83921212346473
30
0
10
156.21421065898755
20
109.01755685002726
30
0
0
LWPOLYLINE
5
415
100
AcDbEntity
8
INTERIOR_PROFILES
100
AcDbPolyline
90
2
10
157.51211593242505
20
109.91052560002726
30
0
10
157.36948897930006
20
109.83921212346473
30
0
0
LWPOLYLINE
5
416
100
AcDbEntity
8
INTERIOR_PROFILES
100
AcDbPolyline
90
2
10
157.65474288555004
20
109.87517892033975
30
0
10
157.51211593242505
20
109.91052560002726
30
0
0
LWPOLYLINE
5
417
100
AcDbEntity
8
INTERIOR_PROFILES
100
AcDbPolyline
90
2
10
158.58367843242505
20
109.41071114690226
30
0
10
157.65474288555004
20
109.87517892033975
30
0
0
LWPOLYLINE
5
418
100
AcDbEntity
8
INTERIOR_PROFILES
100
AcDbPolyline
90
2
10
159.59570968242505
20
109.25568185002726
30
0
10
158.58367843242505
20
109.41071114690226
30
0
0
LWPOLYLINE
5
419
100
AcDbEntity
8
INTERIOR_PROFILES
100
AcDbPolyline
90
2
10
160.89361495586252
20
109.51799142033974
30
0
10
159.59570968242505
20
109.25568185002726
30
0
0
LWPOLYLINE
5
420
100
AcDbEntity
8
INTERIOR_PROFILES
100
AcDbPolyline
90
2
10
162.03649093242507
20
110.30367989690222
30
0
10
160.89361495586252
20
109.51799142033974
30
0
0
LWPOLYLINE
5
421
100
AcDbEntity
8
INTERIOR_PROFILES
100
AcDbPolyline
90
2
10
162.84636397930007
20
111.58918282658973
30
0
10
162.03649093242507
20
110.30367989690222
30
0
0
LWPOLYLINE
5
422
100
AcDbEntity
8
INTERIOR_PROFILES
100
AcDbPolyline
90
2
10
163.15580245586256
20
113.36333810002725
30
0
10
162.84636397930007
20
111.58918282658973
30
0
0
LINE
5
423
100
AcDbEntity
8
INTERIOR_PROFILES
100
AcDbLine
10
163.15580245586256
20
113.36333810002725
30
0
11
163.15580245586256
21
117.16155587346475
31
0
0
LWPOLYLINE
5
424
100
AcDbEntity
8
INTERIOR_PROFILES
100
AcDbPolyline
90
2
10
163.04852218242505
20
117.32836739690225
30
0
10
163.15580245586256
20
117.16155587346475
30
0
0
LWPOLYLINE
5
425
100
AcDbEntity
8
INTERIOR_PROFILES
100
AcDbPolyline
90
2
10
162.85814620586254
20
117.29240060002724
30
0
10
163.04852218242505
20
117.32836739690225
30
0
0
LWPOLYLINE
5
426
100
AcDbEntity
8
INTERIOR_PROFILES
100
AcDbPolyline
90
2
10
162.01292647930003
20
116.95939751894399
30
0
10
162.85814620586254
20
117.29240060002724
30
0
0
LWPOLYLINE
5
427
100
AcDbEntity
8
INTERIOR_PROFILES
100
AcDbPolyline
90
5
10
203.68063889555006
20
158.39041685283973
30
0
10
204.74269616178543
20
157.97003553570107
30
0
10
205.51052720121413
20
157.16956113994914
30
0
10
206.05965066007641
20
156.36466840923623
30
0
10
206.46558518461256
20
155.93103208721476
30
0
0
LWPOLYLINE
5
428
100
AcDbEntity
8
INTERIOR_PROFILES
100
AcDbPolyline
90
3
10
200.67493088773759
20
158.10888364971476
30
0
10
202.15290268949536
20
158.58056028545693
30
0
10
203.68063889555006
20
158.39041685283973
30
0
0
LWPOLYLINE
5
429
100
AcDbEntity
8
INTERIOR_PROFILES
100
AcDbPolyline
90
2
10
200.34626877836251
20
157.80189018465836
30
0
10
200.67493088773759
20
158.10888364971476
30
0
0
LINE
5
430
100
AcDbEntity
8
INTERIOR_PROFILES
100
AcDbLine
10
200.34626877836251
20
157.80189018465836
30
0
11
200.34626877836257
21
159.18354673565227
31
0
0
LINE
5
431
100
AcDbEntity
8
INTERIOR_PROFILES
100
AcDbLine
10
200.34626877836257
20
159.18354673565227
30
0
11
195.96514084867508
21
159.18354673565227
31
0
0
LINE
5
432
100
AcDbEntity
8
INTERIOR_PROFILES
100
AcDbLine
10
195.96514084867508
20
159.18354673565227
30
0
11
195.96514084867508
21
166.30497251690224
31
0
0
LWPOLYLINE
5
433
100
AcDbEntity
8
INTERIOR_PROFILES
100
AcDbPolyline
90
5
10
185.11060959867507
20
166.63177427471476
30
0
10
187.97144272855789
20
167.51780546367962
30
0
10
190.73414231351882
20
167.75868223369912
30
0
10
193.39870835355788
20
167.35440458477336
30
0
10
195.96514084867508
20
166.30497251690224
30
0
0
LINE
5
434
100
AcDbEntity
8
INTERIOR_PROFILES
100
AcDbLine
10
185.11060959867507
20
166.63177427471476
30
0
11
185.11060959867507
21
163.03819517315225
31
0
0
LINE
5
435
100
AcDbEntity
8
INTERIOR_PROFILES
100
AcDbLine
10
185.11060959867507
20
163.03819517315225
30
0
11
181.51392991117504
21
164.86754087627725
31
0
0
LINE
5
436
100
AcDbEntity
8
INTERIOR_PROFILES
100
AcDbLine
10
181.51392991117504
20
164.86754087627725
30
0
11
181.51392991117504
21
171.66278501690221
31
0
0
LINE
5
437
100
AcDbEntity
8
INTERIOR_PROFILES
100
AcDbLine
10
181.51392991117504
20
171.66278501690221
30
0
11
176.15239670805011
21
171.66278501690226
31
0
0
LINE
5
438
100
AcDbEntity
8
INTERIOR_PROFILES
100
AcDbLine
10
176.15239670805011
20
171.66278501690226
30
0
11
176.15239670805008
21
167.5464471262772
31
0
0
LWPOLYLINE
5
439
100
AcDbEntity
8
INTERIOR_PROFILES
100
AcDbPolyline
90
5
10
171.5095793252377
20
162.29677895427557
30
0
10
172.07345578885622
20
164.19307808967682
30
0
10
173.09506385255045
20
165.70626058351363
30
0
10
174.4846339982914
20
166.82711930573186
30
0
10
176.15239670805008
20
167.5464471262772
30
0
0
LINE
5
440
100
AcDbEntity
8
INTERIOR_PROFILES
100
AcDbLine
10
171.5095793252377
20
162.29677895427557
30
0
11
171.50957932523755
21
178.06549497783973
31
0
0
LINE
5
441
100
AcDbEntity
8
INTERIOR_PROFILES
100
AcDbLine
10
171.50957932523755
20
178.06549497783973
30
0
11
169.02476975492507
21
178.06549497783976
31
0
0
LINE
5
442
100
AcDbEntity
8
INTERIOR_PROFILES
100
AcDbLine
10
169.02476975492507
20
178.06549497783976
30
0
11
169.02476975492505
21
89.602057477839736
31
0
0
LINE
5
443
100
AcDbEntity
8
INTERIOR_PROFILES
100
AcDbLine
10
169.02476975492505
20
89.602057477839736
30
0
11
171.50957932523755
21
89.602057477839722
31
0
0
LINE
5
444
100
AcDbEntity
8
INTERIOR_PROFILES
100
AcDbLine
10
171.50957932523755
20
89.602057477839722
30
0
11
171.50957932523755
21
109.68206179849506
31
0
0
LWPOLYLINE
5
445
100
AcDbEntity
8
INTERIOR_PROFILES
100
AcDbPolyline
90
5
10
176.34835373930005
20
105.08638364971475
30
0
10
174.61139501413294
20
105.78215881673806
30
0
10
173.18121759030473
20
106.78053167426185
30
0
10
172.12491463745857
20
108.08075005670716
30
0
10
171.50957932523755
20
109.68206179849506
30
0
0
LINE
5
446
100
AcDbEntity
8
INTERIOR_PROFILES
100
AcDbLine
10
176.34835373930005
20
105.08638364971475
30
0
11
176.34835373930005
21
95.612853376277258
31
0
0
LINE
5
447
100
AcDbEntity
8
INTERIOR_PROFILES
100
AcDbLine
10
176.34835373930005
20
95.612853376277258
30
0
11
181.57966233305004
21
95.612853376277243
31
0
0
LINE
5
448
100
AcDbEntity
8
INTERIOR_PROFILES
100
AcDbLine
10
181.57966233305004
20
95.612853376277243
30
0
11
181.57966233305007
21
104.17171079815225
31
0
0
LINE
5
449
100
AcDbEntity
8
INTERIOR_PROFILES
100
AcDbLine
10
181.57966233305007
20
104.17171079815225
30
0
11
194.91900315336255
21
104.56362486065224
31
0
0
LWPOLYLINE
5
450
100
AcDbEntity
8
INTERIOR_PROFILES
100
AcDbPolyline
90
5
10
196.81532151273757
20
102.08067564190223
30
0
10
196.69680161527663
20
102.9465142649491
30
0
10
196.3412419228938
20
103.64895200908974
30
0
10
195.74864243558915
20
104.18798887432411
30
0
10
194.91900315336255
20
104.56362486065224
30
0
0
LINE
5
451
100
AcDbEntity
8
INTERIOR_PROFILES
100
AcDbLine
10
196.81532151273757
20
102.08067564190223
30
0
11
200.41200120023757
21
102.21152036846473
31
0
0
LINE
5
452
100
AcDbEntity
8
INTERIOR_PROFILES
100
AcDbLine
10
200.41200120023757
20
102.21152036846473
30
0
11
200.41200120023757
21
120.70155454815225
31
0
0
LINE
5
453
100
AcDbEntity
8
INTERIOR_PROFILES
100
AcDbLine
10
200.41200120023757
20
120.70155454815225
30
0
11
196.03087327055007
21
120.70155454815225
31
0
0
LINE
5
454
100
AcDbEntity
8
INTERIOR_PROFILES
100
AcDbLine
10
196.03087327055007
20
120.70155454815225
30
0
11
196.03087327055007
21
133.50697447002725
31
0
0
LWPOLYLINE
5
455
100
AcDbEntity
8
INTERIOR_PROFILES
100
AcDbPolyline
90
5
10
199.03844162992505
20
137.49246763408973
30
0
10
198.85046860746414
20
135.96926603496865
30
0
10
198.2865495400813
20
134.79728330791787
30
0
10
197.34668442777664
20
133.9765194529374
30
0
10
196.03087327055007
20
133.50697447002725
30
0
0
LWPOLYLINE
5
456
100
AcDbEntity
8
INTERIOR_PROFILES
100
AcDbPolyline
90
5
10
195.90002854398756
20
141.08604673565227
30
0
10
197.27308426908522
20
140.78773161114054
30
0
10
198.25383835844067
20
140.08936338604289
30
0
10
198.84229081205399
20
138.99094206035929
30
0
10
199.03844162992505
20
137.49246763408973
30
0
0
LINE
5
457
100
AcDbEntity
8
INTERIOR_PROFILES
100
AcDbLine
10
195.90002854398756
20
141.08604673565227
30
0
11
195.96514084867508
21
151.67020689190224
31
0
0
LINE
5
458
100
AcDbEntity
8
INTERIOR_PROFILES
100
AcDbLine
10
195.96514084867508
20
151.67020689190224
30
0
11
200.34626877836257
21
151.80043150127725
31
0
0
LINE
5
459
100
AcDbEntity
8
INTERIOR_PROFILES
100
AcDbLine
10
200.34626877836257
20
151.80043150127725
30
0
11
200.3462687783626
21
152.74569785961182
31
0
0
LWPOLYLINE
5
460
100
AcDbEntity
8
INTERIOR_PROFILES
100
AcDbPolyline
90
5
10
205.02939377836256
20
149.04463072002724
30
0
10
204.84572908881609
20
149.3301983064049
30
0
10
204.46820572627533
20
149.73081133663382
30
0
10
203.28974265079754
20
150.74826330155463
30
0
10
200.3462687783626
20
152.74569785961182
30
0
0
LWPOLYLINE
5
461
100
AcDbEntity
8
INTERIOR_PROFILES
100
AcDbPolyline
90
7
10
206.57162522367508
20
142.01250181377725
30
0
10
205.67929596952467
20
142.8902970713456
30
0
10
205.11485367826492
20
143.92331541241006
30
0
10
204.71359910062819
20
146.14527280987102
30
0
10
204.85579972318678
20
148.05887693584756
30
0
10
204.97067643217116
20
148.70645368755655
30
0
10
205.02939377836256
20
149.04463072002724
30
0
0
LWPOLYLINE
5
462
100
AcDbEntity
8
INTERIOR_PROFILES
100
AcDbPolyline
90
2
10
207.98797287992505
20
141.09348814190224
30
0
10
206.57162522367508
20
142.01250181377725
30
0
0
LWPOLYLINE
5
463
100
AcDbEntity
8
INTERIOR_PROFILES
100
AcDbPolyline
90
7
10
209.40556077055007
20
135.88822447002724
30
0
10
209.06084343961743
20
136.35595754803018
30
0
10
208.44864243558914
20
137.23349119366006
30
0
10
208.16459363988906
20
137.89433385074929
30
0
10
207.96050362638505
20
138.73970739544228
30
0
10
207.88531562856704
20
139.79697207630468
30
0
10
207.98797287992505
20
141.09348814190224
30
0
0
LWPOLYLINE
5
464
100
AcDbEntity
8
INTERIOR_PROFILES
100
AcDbPolyline
90
6
10
209.44772873930006
20
128.32465513408974
30
0
10
208.78919819883376
20
129.51630720318153
30
0
10
208.34202103666337
20
130.54785276592568
30
0
10
208.0323112588313
20
132.31014829815226
30
0
10
208.41976822904616
20
133.97058958233191
30
0
10
209.40556077055007
20
135.88822447002724
30
0
0
LWPOLYLINE
5
465
100
AcDbEntity
8
INTERIOR_PROFILES
100
AcDbPolyline
90
3
10
211.63550217680006
20
126.15734556377724
30
0
10
210.39650803617505
20
127.09217222393349
30
0
10
209.44772873930006
20
128.32465513408974
30
0
0
LWPOLYLINE
5
466
100
AcDbEntity
8
INTERIOR_PROFILES
100
AcDbPolyline
90
3
10
212.27050217680005
20
125.34685239971475
30
0
10
212.07462266019849
20
125.82604795635535
30
0
10
211.63550217680006
20
126.15734556377724
30
0
0
LWPOLYLINE
5
467
100
AcDbEntity
8
INTERIOR_PROFILES
100
AcDbPolyline
90
2
10
211.34962815336254
20
123.72028501690224
30
0
10
212.27050217680005
20
125.34685239971475
30
0
0
LWPOLYLINE
5
468
100
AcDbEntity
8
INTERIOR_PROFILES
100
AcDbPolyline
90
15
10
223.27448166898756
20
117.70886900127724
30
0
10
222.58693733505277
20
116.61944891274766
30
0
10
221.7406872086909
20
115.77530364216165
30
0
10
220.76808941654232
20
115.16573525966004
30
0
10
219.70150208524731
20
114.78004583538367
30
0
10
218.57328334144623
20
114.60753743947343
30
0
10
217.41579131177929
20
114.63751214207008
30
0
10
215.14241990140943
20
115.26211912334756
30
0
10
213.14025286726024
20
116.56828334034279
30
0
10
212.32176630786924
20
117.45020458758667
30
0
10
211.66815522245435
20
118.47042135418251
30
0
10
211.21177773765592
20
119.61823571027114
30
0
10
210.98499198011427
20
120.88294972599343
30
0
10
211.02015607646968
20
122.25386547149017
30
0
10
211.34962815336254
20
123.72028501690224
30
0
0
LWPOLYLINE
5
469
100
AcDbEntity
8
INTERIOR_PROFILES
100
AcDbPolyline
90
11
10
233.79911057523756
20
125.01260923565223
30
0
10
233.30350477389362
20
123.2853522926648
30
0
10
232.70092058233288
20
121.85207177341773
30
0
10
232.00964812687903
20
120.6860805350621
30
0
10
231.2479775338557
20
119.76069143474894
30
0
10
229.58660244039564
20
118.52497107685403
30
0
10
227.86311631254225
20
117.93141355694132
30
0
10
226.22384016088515
20
117.76652173221903
30
0
10
224.81509499601395
20
117.81679845989542
30
0
10
223.7832018285182
20
117.86874659717874
30
0
10
223.27448166898756
20
117.70886900127724
30
0
0
LWPOLYLINE
5
470
100
AcDbEntity
8
INTERIOR_PROFILES
100
AcDbPolyline
90
9
10
226.13198166898758
20
136.29130064190224
30
0
10
227.58955016187699
20
136.06365949810342
30
0
10
229.08294495634109
20
135.47883085430459
30
0
10
230.52294184736283
20
134.54652342022254
30
0
10
231.82031662992506
20
133.27644590557412
30
0
10
232.88584509901074
20
131.67830702007606
30
0
10
233.63030304960279
20
129.76181547344521
30
0
10
233.96446627668411
20
127.53667997539833
30
0
10
233.79911057523756
20
125.01260923565223
30
0
0
LWPOLYLINE
5
471
100
AcDbEntity
8
INTERIOR_PROFILES
100
AcDbPolyline
90
4
10
222.37717209867503
20
136.17719907940224
30
0
10
222.95618714384108
20
136.2402863138993
30
0
10
223.91506272367505
20
136.3372668284257
30
0
10
226.13198166898758
20
136.29130064190224
30
0
0
LWPOLYLINE
5
472
100
AcDbEntity
8
INTERIOR_PROFILES
100
AcDbPolyline
90
4
10
220.71029709867506
20
138.11816587627726
30
0
10
221.56257065824536
20
137.38743528545692
30
0
10
221.96664483121901
20
136.9511150187333
30
0
10
222.37717209867503
20
136.17719907940224
30
0
0
LWPOLYLINE
5
473
100
AcDbEntity
8
INTERIOR_PROFILES
100
AcDbPolyline
90
9
10
215.3121769814876
20
147.97058775127726
30
0
10
216.91672535947831
20
147.98082331837014
30
0
10
218.39136887601882
20
147.5954071635087
30
0
10
219.66823376707109
20
146.83476681888894
30
0
10
220.67944626859696
20
145.71932981670693
30
0
10
221.35713261655837
20
144.26952368915872
30
0
10
221.63341904691725
20
142.50577596844033
30
0
10
221.4404317956355
20
140.44851418674784
30
0
10
220.71029709867506
20
138.11816587627726
30
0
0
LWPOLYLINE
5
474
100
AcDbEntity
8
INTERIOR_PROFILES
100
AcDbPolyline
90
9
10
208.69056565336254
20
156.42898618877726
30
0
10
211.11740395597485
20
156.13488592327431
30
0
10
212.3866954236415
20
155.80836636722879
30
0
10
213.56057847074538
20
155.21518430889444
30
0
10
214.53956062368422
20
154.24507758320169
30
0
10
215.22414940885571
20
152.78778402508095
30
0
10
215.51485235265761
20
150.73304146946268
30
0
10
215.48140523604422
20
149.44716989100772
30
0
10
215.3121769814876
20
147.97058775127726
30
0
0
LWPOLYLINE
5
475
100
AcDbEntity
8
INTERIOR_PROFILES
100
AcDbPolyline
90
2
10
206.46558518461256
20
155.93103208721476
30
0
10
208.69056565336254
20
156.42898618877726
30
0
0
LWPOLYLINE
5
476
100
AcDbEntity
8
INTERIOR_PROFILES
100
AcDbPolyline
90
5
10
199.53872438288298
20
26.865790899594622
30
0
10
200.28063198294805
20
26.71621860116721
30
0
10
200.88611418025263
20
26.308181504408527
30
0
10
201.29415127701128
20
25.702699307103956
30
0
10
201.44372357543872
20
24.960791707038865
30
0
0
LINE
5
477
100
AcDbEntity
8
INTERIOR_PROFILES
100
AcDbLine
10
199.53872438288298
20
26.865790899594622
30
0
11
191.91872357543872
21
26.865790899594622
31
0
0
LWPOLYLINE
5
478
100
AcDbEntity
8
INTERIOR_PROFILES
100
AcDbPolyline
90
2
10
191.08793207026088
20
27.696582404772467
30
0
10
191.91872357543872
20
26.865790899594622
30
0
0
LWPOLYLINE
5
479
100
AcDbEntity
8
INTERIOR_PROFILES
100
AcDbPolyline
90
5
10
186.44714016136095
20
26.865790899594622
30
0
10
187.40406411058271
20
27.781042524675527
30
0
10
188.59588810221913
20
28.242616581916806
30
0
10
189.87353610065145
20
28.223475674291457
30
0
10
191.08793207026088
20
27.696582404772467
30
0
0
LINE
5
480
100
AcDbEntity
8
INTERIOR_PROFILES
100
AcDbLine
10
186.44714016136095
20
26.865790899594622
30
0
11
178.82714036322201
21
26.865790899594639
31
0
0
LWPOLYLINE
5
481
100
AcDbEntity
8
INTERIOR_PROFILES
100
AcDbPolyline
90
5
10
176.92214016136094
20
24.960791707038865
30
0
10
177.07171247555877
20
25.702699307103934
30
0
10
177.47974968271023
20
26.308181504408509
30
0
10
178.08523217965231
20
26.71621860116721
30
0
10
178.82714036322201
20
26.865790899594639
30
0
0
LWPOLYLINE
5
482
100
AcDbEntity
8
INTERIOR_PROFILES
100
AcDbPolyline
90
5
10
178.82714036322201
20
23.055791505177794
30
0
10
178.08523217965231
20
23.205363961309175
30
0
10
177.47974968271023
20
23.613401405016571
30
0
10
177.07171247555877
20
24.218883949269845
30
0
10
176.92214016136094
20
24.960791707038865
30
0
0
LINE
5
483
100
AcDbEntity
8
INTERIOR_PROFILES
100
AcDbLine
10
178.82714036322201
20
23.055791505177794
30
0
11
186.44714016136095
21
23.055791505177829
31
0
0
LWPOLYLINE
5
484
100
AcDbEntity
8
INTERIOR_PROFILES
100
AcDbPolyline
90
2
10
187.27793166653879
20
22.225000000000001
30
0
10
186.44714016136095
20
23.055791505177829
30
0
0
LINE
5
485
100
AcDbEntity
8
INTERIOR_PROFILES
100
AcDbLine
10
187.27793166653879
20
22.225000000000001
30
0
11
187.27793166653879
21
14.605000201861067
31
0
0
LWPOLYLINE
5
486
100
AcDbEntity
8
INTERIOR_PROFILES
100
AcDbPolyline
90
5
10
189.18293085909454
20
12.699999999999996
30
0
10
188.44102325902946
20
12.849572314197816
30
0
10
187.83554106172488
20
13.257609521349274
30
0
10
187.42750396496621
20
13.863092018291361
30
0
10
187.27793166653879
20
14.605000201861067
30
0
0
LWPOLYLINE
5
487
100
AcDbEntity
8
INTERIOR_PROFILES
100
AcDbPolyline
90
5
10
191.08793408887155
20
14.605001211166346
30
0
10
190.93836172736252
20
13.863093082793034
30
0
10
190.5303241890328
20
13.257610593736153
30
0
10
189.92484079317816
20
12.849573110602782
30
0
10
189.18293085909454
20
12.699999999999996
30
0
0
LINE
5
488
100
AcDbEntity
8
INTERIOR_PROFILES
100
AcDbLine
10
191.08793408887155
20
14.605001211166346
30
0
11
191.08793408887152
21
22.225001009305316
31
0
0
LWPOLYLINE
5
489
100
AcDbEntity
8
INTERIOR_PROFILES
100
AcDbPolyline
90
2
10
191.91872559404936
20
23.055792514483109
30
0
10
191.08793408887152
20
22.225001009305316
30
0
0
LINE
5
490
100
AcDbEntity
8
INTERIOR_PROFILES
100
AcDbLine
10
191.91872559404936
20
23.055792514483109
30
0
11
199.538724382883
21
23.055792514483109
31
0
0
LWPOLYLINE
5
491
100
AcDbEntity
8
INTERIOR_PROFILES
100
AcDbPolyline
90
5
10
201.44372357543872
20
24.960791707038865
30
0
10
201.29415156087842
20
24.218884106973803
30
0
10
200.88611493723161
20
23.613401909669228
30
0
10
200.28063283454941
20
23.205364812910538
30
0
10
199.538724382883
20
23.055792514483109
30
0
0
LINE
5
492
100
AcDbEntity
8
BEND
100
AcDbLine
10
24.34048271494591
20
252.94048271477237
30
-4.0164542990963111e-13
11
24.340482714945928
21
-3.5527136788005009e-14
31
-4.3718181099392771e-13
0
LINE
5
493
100
AcDbEntity
8
BEND
100
AcDbLine
10
119.75016542954978
20
255.37888271478636
30
2.3495464488007886e-12
11
26.778882714777588
21
255.37888271478636
31
-3.6381415267737848e-13
0
LINE
5
494
100
AcDbEntity
8
BEND
100
AcDbLine
10
354.0253790033114
20
-3.5527136788005009e-14
30
9.8807232940137163e-12
11
354.0253790033114
21
252.94048271477234
31
9.8568976898659724e-12
0
LINE
5
495
100
AcDbEntity
8
BEND
100
AcDbLine
10
351.58697900341156
20
255.3788827142773
30
9.6019820816963557e-12
11
258.61569628863913
21
255.3788827142773
31
1.2973059716585388e-12
0
LINE
5
496
100
AcDbEntity
8
BEND
100
AcDbLine
10
121.12904814432216
20
253.99999999999991
30
2.4211412089492515e-12
11
121.12904814432216
21
-3.5527136788005009e-14
31
2.4529829915721464e-12
0
LINE
5
497
100
AcDbEntity
8
BEND
100
AcDbLine
10
257.23681357386693
20
-3.5527136788005009e-14
30
1.2627571569325633e-12
11
257.23681357386693
21
254.00000000000006
31
1.280520725326565e-12
0
LINE
5
498
100
AcDbEntity
8
BEND_EXTENT
100
AcDbLine
10
22.961600000000058
20
0
30
-4.9289790356228345e-13
11
22.961600000000058
21
253.36779419884621
31
-4.0799320599520388e-13
0
LINE
5
499
100
AcDbEntity
8
BEND_EXTENT
100
AcDbLine
10
258.61569628863913
20
256.75776542955771
30
1.2901718066736085e-12
11
352.01429048749901
21
256.75776542955771
31
9.7026830806340335e-12
0
LINE
5
500
100
AcDbEntity
8
BEND_EXTENT
100
AcDbLine
10
355.40426171819155
20
253.36779419884326
30
1.0034747559425208e-11
11
355.40426171819155
21
0
31
1.0034747559425208e-11
0
LINE
5
501
100
AcDbEntity
8
BEND_EXTENT
100
AcDbLine
10
352.64649628863924
20
0
30
9.7603716568235616e-12
11
352.64649628863924
21
253.36779419884857
31
9.7603716568235616e-12
0
LINE
5
502
100
AcDbEntity
8
BEND_EXTENT
100
AcDbLine
10
25.719365429549814
20
253.3677941988428
30
-3.9588012914448359e-13
11
25.719365429549814
21
0
31
-3.9588012914448359e-13
0
LINE
5
503
100
AcDbEntity
8
BEND_EXTENT
100
AcDbLine
10
26.351571230706572
20
256.75776542954424
30
-3.6853774203524351e-13
11
119.75016542954981
21
256.75776542954429
31
2.4274478620057678e-12
0
LINE
5
504
100
AcDbEntity
8
BEND_EXTENT
100
AcDbLine
10
119.75016542954978
20
253.99999999999994
30
2.4096842936117657e-12
11
26.351571230706838
21
253.99999999999994
31
-3.4320501569071891e-13
0
LINE
5
505
100
AcDbEntity
8
BEND_EXTENT
100
AcDbLine
10
119.75016542954978
20
0
30
2.4096842936117657e-12
11
119.75016542954978
21
253.99999999999994
31
2.4096842936117657e-12
0
LINE
5
506
100
AcDbEntity
8
BEND_EXTENT
100
AcDbLine
10
352.01429048749003
20
254.00000000000003
30
9.6627399024599774e-12
11
258.61569628863919
21
254.00000000000003
31
1.2329953209054124e-12
0
LINE
5
507
100
AcDbEntity
8
BEND_EXTENT
100
AcDbLine
10
258.61569628863919
20
254.00000000000003
30
1.2329953209054124e-12
11
258.61569628863919
21
0
31
1.2507588892994149e-12
0
LINE
5
508
100
AcDbEntity
8
BEND_EXTENT
100
AcDbLine
10
255.85793085909449
20
0
30
1.2786412051519008e-12
11
255.85793085909455
21
254.00000000000003
31
1.2786412051519006e-12
0
LINE
5
509
100
AcDbEntity
8
BEND_EXTENT
100
AcDbLine
10
122.50793085909453
20
254
30
2.4389784635274751e-12
11
122.50793085909453
21
0
31
2.4389784635274751e-12
0
ENDSEC
0
SECTION
2
OBJECTS
0
DICTIONARY
5
C
100
AcDbDictionary
3
ACAD_GROUP
350
D
3
ACAD_MLINESTYLE
350
17
0
DICTIONARY
5
D
100
AcDbDictionary
0
DICTIONARY
5
1A
330
C
100
AcDbDictionary
0
DICTIONARY
5
17
100
AcDbDictionary
0
ENDSEC
0
EOF
